<svg xmlns="http://www.w3.org/2000/svg" width="84.262" height="83.942" viewBox="0 0 84.262 83.942"><defs><style>.a{fill:#f2f2f2;}.b{fill:#f8b64c;}.c{opacity:0.1;}.d{fill:#40596b;}.e{fill:#ffd15c;}.f{fill:#acb3ba;}.g{fill:#cdd6e0;}.h{fill:#334a5e;}.i{fill:#2a4356;}.j{fill:#ff7058;}</style></defs><g transform="translate(0 -0.97)"><path class="a" d="M84.262,360.053v12.674H0V360.053a8.13,8.13,0,0,1,5.177-7.584l17.767-6.987,13.868,15.239,4.352-8.865v-.018l.967-1.985.985,1.985,4.353,8.883,13.849-15.239L79.1,352.47a8.159,8.159,0,0,1,5.159,7.584" transform="translate(0 -287.815)"/><path class="b" d="M205.2,292.626h.018v-7.215a38.858,38.858,0,0,1-3.237,4.234l-1.72,1.9a8.408,8.408,0,0,1-6.162,2.721H191.47a8.4,8.4,0,0,1-6.162-2.721l-1.72-1.9a38.153,38.153,0,0,1-3.267-4.28v7.248l.028.014,10.831,6.109,1.6.9,1.6-.9Z" transform="translate(-150.645 -237.592)"/><g class="c" transform="translate(37.544 47.857)"><path class="d" d="M228.275,294.038l-.032-.01c-.018-.007-.037-.012-.054-.018s-.037-.011-.061-.019l6.62,4.917,10.4-5.863h.011l.007-7.178c-.018.026-2.468,3.237-3.237,4.194l-1.72,1.9a8.408,8.408,0,0,1-6.162,2.721h-2.633a7.49,7.49,0,0,1-1.564-.167,8.129,8.129,0,0,1-1.57-.474" transform="translate(-228.128 -285.866)"/></g><g transform="translate(21.948 27.743)"><path class="b" d="M141.227,169.023c.274,3.151-1.255,5.86-3.414,6.046s-4.138-2.214-4.417-5.365,1.255-5.856,3.418-6.046,4.139,2.212,4.413,5.365" transform="translate(-133.364 -163.648)"/><path class="b" d="M338.637,169.717c-.274,3.151-2.252,5.553-4.413,5.363s-3.694-2.895-3.414-6.046,2.252-5.554,4.413-5.365,3.692,2.895,3.414,6.047" transform="translate(-298.288 -163.657)"/></g><path class="e" d="M181.605,55.219A34.439,34.439,0,0,1,172.9,74.141l-1.72,1.9a8.4,8.4,0,0,1-6.162,2.723h-2.633a8.394,8.394,0,0,1-6.162-2.723l-1.72-1.9a34.588,34.588,0,0,1-8.709-18.922,68.043,68.043,0,0,1,0-12.639,18.153,18.153,0,0,1,35.811,0,68.066,68.066,0,0,1,0,12.639" transform="translate(-121.56 -22.091)"/><path class="d" d="M133.706,9.758s.123-11.819,17.307-8.044a29.745,29.745,0,0,1,14.012,10.6s5.147,7.475,2.349,13.763c-.909,2.042-1.885,4.378-1.773,6.255,0,0-.953-3.983-1.522-7.3a15.539,15.539,0,0,0-3.511-7.524l-.054-.065a12.032,12.032,0,0,0-12.037-3.922A21.619,21.619,0,0,0,141.355,17s-7.159-4.8-10.7,3.606a45.221,45.221,0,0,0-1.353,11s-9.853-20.632,4.4-21.85" transform="translate(-105.252 0)"/><path class="f" d="M338.451,331.158a14.665,14.665,0,0,0-.665-4.141,6.3,6.3,0,0,0-4.7-3.423l-5.653-1.141v1.159h-.018l-.809.456,6.2,1.264a4.5,4.5,0,0,1,3.406,2.473,4.433,4.433,0,0,1,.476,2.705l-.037.456c-7.426,6.443-9.532,12.253-9.62,12.516-.558,1.668-.525,2.984.09,3.932a2.711,2.711,0,0,0,1.947,1.211l.176-1.756a1.014,1.014,0,0,1-.665-.439,3.037,3.037,0,0,1,.123-2.372,26.1,26.1,0,0,1,4.213-6.76,3.763,3.763,0,0,1,4.968,1.473,26.812,26.812,0,0,1-.439,8.077c-.335,1.088-.792,1.808-1.3,2a.856.856,0,0,1-.774-.035l-.439.771-.456.76a2.664,2.664,0,0,0,1.334.351,2.411,2.411,0,0,0,.95-.193c1.053-.4,1.862-1.457,2.386-3.142.072-.263,1.7-6.391-.686-16.2M336.12,335.7a5.13,5.13,0,0,0-1.619-.209c.758-.827,1.6-1.668,2.547-2.526.263,1.227.456,2.4.6,3.511a5.212,5.212,0,0,0-1.525-.776" transform="translate(-272.852 -268.575)"/><g transform="translate(55.883 77.947)"><path class="b" d="M341.436,470.239a1.307,1.307,0,0,1-1.533,1.027c-.7-.139-.2-2.7.5-2.558a1.305,1.305,0,0,1,1.029,1.531" transform="translate(-339.565 -468.703)"/><path class="b" d="M367.623,479.506a1.3,1.3,0,0,0,.641,1.727c.655.3,1.741-2.068,1.087-2.37a1.3,1.3,0,0,0-1.727.643" transform="translate(-362.906 -477.092)"/></g><path class="f" d="M105.827,323.6l-.028-.014v-1.145l-3.8.781a13.62,13.62,0,0,0-9.727,18.82l1.608-.706a11.864,11.864,0,0,1,8.47-16.392l4.289-.883Z" transform="translate(-76.124 -268.567)"/><g transform="translate(22.944 55.017)"><path class="g" d="M275.187,332.027l-12.954,16.993L256,336.4l1.6-.9,10.831-6.109h.018l.017-.018Z" transform="translate(-236.813 -329.376)"/><path class="g" d="M139.413,332.027l12.975,16.993L158.6,336.4l-1.6-.9-10.831-6.109-.035-.018Z" transform="translate(-139.413 -329.376)"/></g><path class="h" d="M218.251,394.916l3.544-8.075-1.529-2.247-1.12-1.685,4.35-8.881.967-1.985.985,1.985v.017l4.353,8.863-1.141,1.669-1.529,2.263,3.565,8.075Z" transform="translate(-182.333 -310.004)"/><path class="i" d="M234.346,382.909l-1.141,1.669-4.18-8.551-4.215,8.567-1.12-1.685,4.35-8.881.967-1.985.985,1.985v.017Z" transform="translate(-186.877 -310.004)"/><path class="j" d="M94.736,438.076a3.976,3.976,0,1,1-3.978-3.974,3.98,3.98,0,0,1,3.978,3.974" transform="translate(-72.502 -361.85)"/><path class="a" d="M100.052,444.7a2.671,2.671,0,1,1-2.668-2.67,2.669,2.669,0,0,1,2.668,2.67" transform="translate(-79.123 -368.47)"/><path class="f" d="M103.317,448.761a1.871,1.871,0,1,1-1.868-1.87,1.869,1.869,0,0,1,1.868,1.87" transform="translate(-83.187 -372.534)"/></g></svg>