<svg xmlns="http://www.w3.org/2000/svg" width="78" height="78" viewBox="0 0 78 78"><defs><style>.a{fill:#7d7d7d;}.b{fill:#525252;}.c{fill:#b6e5f0;}.d{fill:#5b9ed6;}.e{fill:#4d86b5;}.f{fill:#9bc3cc;}.g{fill:#ef2d57;}.h{fill:#d4284d;}.i{fill:#fff;}</style></defs><g transform="translate(0)"><path class="a" d="M76.857,487.239H1.143A1.143,1.143,0,0,1,0,486.1v-2.164a1.143,1.143,0,0,1,1.143-1.143H76.857A1.143,1.143,0,0,1,78,483.932V486.1A1.143,1.143,0,0,1,76.857,487.239Zm0,0" transform="translate(0 -409.239)"/><path class="b" d="M0,483.967v.824H78v-.824a1.177,1.177,0,0,0-1.177-1.177H1.177A1.177,1.177,0,0,0,0,483.967Zm0,0" transform="translate(0 -409.24)"/><path class="c" d="M127.031,129.973h39.3v53.749h-39.3Zm0,0" transform="translate(-107.679 -110.173)"/><path class="a" d="M151.528,102.16a1.177,1.177,0,0,1,1.177,1.177v1.883a1.177,1.177,0,0,1-1.177,1.177h-42.91a1.177,1.177,0,0,1-1.177-1.177v-1.883a1.177,1.177,0,0,1,1.177-1.177Zm0,0" transform="translate(-91.073 -86.597)"/><path class="b" d="M356.613,102.16V106.4h6.127a1.177,1.177,0,0,0,1.177-1.177v-1.883a1.177,1.177,0,0,0-1.177-1.177Zm0,0" transform="translate(-302.285 -86.597)"/><path class="a" d="M19.352,185.886H1.143A1.143,1.143,0,0,1,0,184.742v-1.951a1.142,1.142,0,0,1,1.143-1.143h18.21Zm0,0" transform="translate(0 -153.976)"/><path class="b" d="M102.5,181.648h3.737v4.237H102.5Zm0,0" transform="translate(-86.888 -153.975)"/><path class="b" d="M102.5,181.648h3.737v4.237H102.5Zm0,0" transform="translate(-86.888 -153.975)"/><path class="d" d="M208.007,372.634H186.976V356.087a3.251,3.251,0,0,1,3.251-3.251h14.529a3.251,3.251,0,0,1,3.25,3.251v16.547Zm0,0" transform="translate(-158.491 -299.084)"/><path class="e" d="M238.316,352.836H243.7v19.8h-5.388Zm0,0" transform="translate(-202.01 -299.084)"/><path class="c" d="M11.16,209.461H28.812V251.1H11.16Zm0,0" transform="translate(-9.46 -177.551)"/><path class="f" d="M102.5,209.461h3.737V251.1H102.5Zm0,0" transform="translate(-86.888 -177.551)"/><path class="f" d="M102.5,209.461h3.737V251.1H102.5Zm0,0" transform="translate(-86.888 -177.551)"/><path class="c" d="M402.621,251.1H384.969v-41.64h17.652Zm0,0" transform="translate(-326.321 -177.551)"/><path class="f" d="M384.969,209.461h3.737V251.1h-3.737Zm0,0" transform="translate(-326.321 -177.551)"/><g transform="translate(7.335 28.171)"><path class="d" d="M160.542,197.578h-3.928a1.227,1.227,0,0,1-1.227-1.228v-10.2a1.227,1.227,0,0,1,1.227-1.228h3.928a1.227,1.227,0,0,1,1.227,1.228v10.2A1.227,1.227,0,0,1,160.542,197.578Zm0,0" transform="translate(-139.05 -184.918)"/><path class="d" d="M240.21,197.578h-3.928a1.227,1.227,0,0,1-1.227-1.228v-10.2a1.227,1.227,0,0,1,1.227-1.228h3.928a1.227,1.227,0,0,1,1.227,1.228v10.2A1.227,1.227,0,0,1,240.21,197.578Zm0,0" transform="translate(-206.581 -184.918)"/><path class="d" d="M319.878,197.578H315.95a1.227,1.227,0,0,1-1.227-1.228v-10.2a1.227,1.227,0,0,1,1.227-1.228h3.928a1.227,1.227,0,0,1,1.227,1.228v10.2A1.227,1.227,0,0,1,319.878,197.578Zm0,0" transform="translate(-274.112 -184.918)"/><path class="d" d="M53.3,317.234H49.376a1.228,1.228,0,0,1-1.228-1.228V305.8a1.228,1.228,0,0,1,1.228-1.228H53.3a1.228,1.228,0,0,1,1.228,1.228v10.2A1.227,1.227,0,0,1,53.3,317.234Zm0,0" transform="translate(-48.149 -286.346)"/><path class="d" d="M423.185,317.234h3.927a1.228,1.228,0,0,0,1.228-1.228V305.8a1.228,1.228,0,0,0-1.228-1.228h-3.927a1.228,1.228,0,0,0-1.228,1.228v10.2A1.227,1.227,0,0,0,423.185,317.234Zm0,0" transform="translate(-365.01 -286.346)"/></g><path class="a" d="M403.143,181.648a1.177,1.177,0,0,1,1.177,1.177v1.883a1.177,1.177,0,0,1-1.177,1.177H384.968v-4.237Zm0,0" transform="translate(-326.321 -153.975)"/><path class="b" d="M384.969,181.648h3.737v4.237h-3.737Zm0,0" transform="translate(-326.321 -153.975)"/><path class="g" d="M206,15.563V2.535A2.535,2.535,0,0,0,203.465,0h-16.84a2.535,2.535,0,0,0-2.535,2.535V15.563Zm0,0" transform="translate(-156.045)"/><path class="h" d="M302.5,0V15.563h3.871V2.535A2.535,2.535,0,0,0,303.836,0Zm0,0" transform="translate(-256.416)"/><path class="i" d="M232.974,23.27h-2.433V20.837a1.177,1.177,0,1,0-2.354,0V23.27h-2.433a1.177,1.177,0,1,0,0,2.354h2.433v2.432a1.177,1.177,0,1,0,2.354,0V25.624h2.433a1.177,1.177,0,1,0,0-2.354Zm0,0" transform="translate(-190.365 -16.665)"/></g></svg>