<svg xmlns="http://www.w3.org/2000/svg" width="89.337" height="57.929" viewBox="0 0 89.337 57.929"><defs><style>.a{fill:#7dd5f4;}.b{fill:#16a9c7;}.c{fill:#b7e3ff;}.d{fill:#97d6ff;}.e{fill:#e0f4ff;}.f{fill:#00db80;}.g{fill:#00ca76;}.h{fill:#fedb41;}.i{fill:#2d69ad;}.j{fill:#fcbf29;}.k{fill:#1b3359;}</style></defs><g transform="translate(0 -89.999)"><path class="a" d="M0,90H54.481v38.374H0Z" transform="translate(0 0)"/><path class="b" d="M156.115,90h27.241v38.374H156.115Z" transform="translate(-128.874 0)"/><path class="c" d="M0,279.918H54.481v19.314H0Z" transform="translate(0 -156.78)"/><path class="d" d="M156.115,279.918h27.241v19.314H156.115Z" transform="translate(-128.874 -156.78)"/><path class="e" d="M341.962,151.128H327.23v15.107h21.093Z" transform="translate(-270.131 -50.463)"/><path class="c" d="M341.962,151.128H327.23v15.107h21.093Z" transform="translate(-270.131 -50.463)"/><path class="f" d="M312.23,180.533h34.856V162.381a11.162,11.162,0,0,0-9.346-11l-6.422-15.254H312.23Zm5.235-39.17h10.377L332,151.235H317.465Z" transform="translate(-257.749 -38.08)"/><path class="g" d="M312.23,180.533h34.856V162.381a11.162,11.162,0,0,0-9.346-11l-6.422-15.254H312.23Zm5.235-39.17h10.377L332,151.235H317.465Z" transform="translate(-257.749 -38.08)"/><path class="h" d="M463.111,286.669h8.528V291.9h-8.528Z" transform="translate(-382.302 -162.353)"/><circle class="e" cx="5.476" cy="5.476" r="5.476" transform="translate(66.552 134.36)"/><circle class="c" cx="5.476" cy="5.476" r="5.476" transform="translate(66.552 134.36)"/><path class="i" d="M374.5,345.415a8.093,8.093,0,1,1,8.093-8.093A8.1,8.1,0,0,1,374.5,345.415Zm0-10.951a2.858,2.858,0,1,0,2.858,2.858A2.861,2.861,0,0,0,374.5,334.464Z" transform="translate(-302.473 -197.486)"/><circle class="e" cx="5.476" cy="5.476" r="5.476" transform="translate(11.834 134.36)"/><path class="i" d="M60.91,345.415A8.093,8.093,0,1,1,69,337.322,8.1,8.1,0,0,1,60.91,345.415Zm0-10.951a2.858,2.858,0,1,0,2.858,2.858A2.862,2.862,0,0,0,60.91,334.464Z" transform="translate(-43.601 -197.486)"/><path class="j" d="M463.111,286.669h8.528V291.9h-8.528Z" transform="translate(-382.302 -162.353)"/><path class="k" d="M374.5,345.415a8.093,8.093,0,1,1,8.093-8.093A8.1,8.1,0,0,1,374.5,345.415Zm0-10.951a2.858,2.858,0,1,0,2.858,2.858A2.861,2.861,0,0,0,374.5,334.464Z" transform="translate(-302.473 -197.486)"/></g></svg>