<svg xmlns="http://www.w3.org/2000/svg" width="88.07" height="86.627" viewBox="0 0 88.07 86.627"><defs><style>.a{fill:#c9fff7;}.b{fill:#f7d360;}.c{fill:#72cec0;}.d{fill:#e58e13;}.e{fill:#e6e6e6;}.f{fill:#ccc;}.g{fill:#fc5f61;}.h{fill:#e83842;}.i{fill:#fff;}</style></defs><g transform="translate(0 -0.001)"><path class="a" d="M239.095,122.626V105.2h-21.7v17.427a26.7,26.7,0,1,0,21.7,0Zm0,0" transform="translate(-166.876 -87.103)"/><path class="b" d="M275.552,274.476A21.3,21.3,0,1,1,239.5,259.122h29.508a21.322,21.322,0,0,1,6.544,15.355Zm0,0" transform="translate(-192.886 -214.549)"/><path class="c" d="M222.273,111.582v-4.823a4.731,4.731,0,0,1,4.73-4.731h12.091V96.856l-4.3-3.916-4.052-1.08-13.344,5v14.727a26.7,26.7,0,0,0,10.661,51.1c-8.029-.185-14.506-12.068-14.506-26.7,0-10.884,3.584-20.245,8.723-24.4Zm0,0" transform="translate(-166.876 -76.058)"/><path class="d" d="M243.638,292.932a21.287,21.287,0,0,1-4.138-33.811h2.733a42.97,42.97,0,0,0-2.673,15.355,40.366,40.366,0,0,0,4.078,18.456Zm0,0" transform="translate(-192.886 -214.549)"/><path class="e" d="M52.213,216.738,34.873,186.7v-15.54H18.393V186.7L1.053,216.738a7.74,7.74,0,0,0,6.7,11.611H45.51a7.74,7.74,0,0,0,6.7-11.611Zm0,0" transform="translate(-0.004 -141.721)"/><path class="f" d="M34.869,157.518l-5.045-2.835-9.67.1-1.765,2.734v15.539L1.049,203.093a7.739,7.739,0,0,0,6.7,11.61H18.058c-2.706,0-4.4-6.45-3.044-11.61l7.875-30.036v-7.978a2.968,2.968,0,0,1,2.969-2.968h9.012Zm0,0" transform="translate(0 -128.076)"/><path class="f" d="M100.6,133.84a3.512,3.512,0,0,1-3.512,3.512H75.684a3.512,3.512,0,0,1,0-7.024H97.09a3.511,3.511,0,0,1,3.512,3.512Zm0,0" transform="translate(-59.758 -107.909)"/><path class="e" d="M141.6,133.84a3.512,3.512,0,0,1-3.512,3.512H125.2a3.512,3.512,0,0,1,0-7.024h12.887a3.511,3.511,0,0,1,3.512,3.512Zm0,0" transform="translate(-100.759 -107.909)"/><path class="c" d="M293.746,83.578a3.512,3.512,0,0,1-3.512,3.512H263.755a3.512,3.512,0,1,1,0-7.024h26.478a3.512,3.512,0,0,1,3.512,3.512Zm0,0" transform="translate(-215.478 -66.293)"/><path class="a" d="M333.256,83.578a3.512,3.512,0,0,1-3.512,3.512H311.473a3.512,3.512,0,1,1,0-7.024h18.271a3.512,3.512,0,0,1,3.512,3.512Zm0,0" transform="translate(-254.988 -66.293)"/><path class="g" d="M73.534,347.915a2.26,2.26,0,0,1-2.022,1.168H33.758a2.337,2.337,0,0,1-2.024-3.5l12.743-22.071H60.793l12.741,22.071a2.261,2.261,0,0,1,0,2.336Zm0,0" transform="translate(-26.005 -267.859)"/><g transform="translate(5.402 0.001)"><path class="h" d="M41.018,342.877a16.017,16.017,0,0,0-.308,6.207H33.758a2.337,2.337,0,0,1-2.024-3.5l12.743-22.071H46.1Zm0,0" transform="translate(-31.407 -267.86)"/><path class="h" d="M165.262,400.063a1.35,1.35,0,1,1,1.336-1.152A1.36,1.36,0,0,1,165.262,400.063Zm0,0" transform="translate(-141.13 -329.017)"/><path class="h" d="M130.617,78.082a1.351,1.351,0,1,1,1.315-1.047,1.363,1.363,0,0,1-1.315,1.047Zm0,0" transform="translate(-112.443 -62.417)"/><path class="h" d="M161.863,48.236a1.351,1.351,0,1,1,1.316-1.046A1.362,1.362,0,0,1,161.863,48.236Zm0,0" transform="translate(-138.313 -37.705)"/><path class="h" d="M144.793,2.7a1.365,1.365,0,0,1-1.293-.959,1.365,1.365,0,0,1,.542-1.516,1.361,1.361,0,0,1,2.06,1.452A1.365,1.365,0,0,1,144.793,2.7Zm0,0" transform="translate(-124.171 -0.001)"/></g><path class="i" d="M419.29,294.851a1.351,1.351,0,1,1,1.351-1.351A1.364,1.364,0,0,1,419.29,294.851Zm0,0" transform="translate(-346.06 -241.903)"/><path class="i" d="M424.735,347.206a1.35,1.35,0,1,1,1.336-1.152A1.361,1.361,0,0,1,424.735,347.206Zm0,0" transform="translate(-350.564 -285.249)"/><path class="i" d="M322.273,406.333a1.351,1.351,0,1,1,1.3-.992A1.361,1.361,0,0,1,322.273,406.333Zm0,0" transform="translate(-265.721 -334.205)"/><path class="i" d="M286.2,340.368a1.35,1.35,0,1,1,1.322-1.072A1.361,1.361,0,0,1,286.2,340.368Zm0,0" transform="translate(-235.858 -279.587)"/><path class="i" d="M381.994,321.52a1.35,1.35,0,1,1,1.326-1.086A1.361,1.361,0,0,1,381.994,321.52Zm0,0" transform="translate(-315.178 -263.982)"/><path class="h" d="M110.244,416.335a1.351,1.351,0,1,1,1.324-1.086A1.363,1.363,0,0,1,110.244,416.335Zm0,0" transform="translate(-90.164 -342.491)"/><path class="h" d="M130.662,365.514a1.35,1.35,0,1,1,1.33-1.119A1.362,1.362,0,0,1,130.662,365.514Zm0,0" transform="translate(-107.07 -300.411)"/></g></svg>