<svg xmlns="http://www.w3.org/2000/svg" width="77.928" height="77.999" viewBox="0 0 77.928 77.999"><defs><style>.a{fill:#ffdb56;}.b{fill:#ff4a4a;}.c{fill:#ffbb24;}.d{fill:#e7343f;}.e{fill:#1ea4e9;}</style></defs><g transform="translate(-0.232)"><path class="a" d="M50.543,430.773c-6.554,0-13.519,2.168-13.519,6.187s6.965,6.187,13.519,6.187,13.519-2.169,13.519-6.187S57.1,430.773,50.543,430.773Z" transform="translate(-31.187 -365.148)"/><path class="b" d="M19.356,153.9A19.146,19.146,0,0,0,.232,173.026c0,6.547,3.114,13.587,9.257,20.923a65.933,65.933,0,0,0,9.167,9.017,1.144,1.144,0,0,0,1.4,0,65.933,65.933,0,0,0,9.167-9.017c6.143-7.336,9.257-14.376,9.257-20.923A19.146,19.146,0,0,0,19.356,153.9Zm7.171,19.124a7.171,7.171,0,1,1-7.171-7.171A7.171,7.171,0,0,1,26.528,173.026Z" transform="translate(0 -130.456)"/><path class="a" d="M361.413,214.016a21.607,21.607,0,0,0-14.314,0c-2.256.919-3.5,2.269-3.5,3.8s1.242,2.881,3.5,3.8a21.607,21.607,0,0,0,14.314,0c2.256-.919,3.5-2.269,3.5-3.8S363.669,214.935,361.413,214.016Z" transform="translate(-291.06 -180.378)"/><g transform="translate(5.837 36.009)"><path class="c" d="M50.543,466.768c-5.729,0-11.772-1.657-13.2-4.759a3.378,3.378,0,0,0-.316,1.428c0,4.019,6.965,6.187,13.519,6.187s13.519-2.169,13.519-6.187a3.379,3.379,0,0,0-.316-1.428C62.315,465.111,56.272,466.768,50.543,466.768Z" transform="translate(-37.024 -427.635)"/><path class="c" d="M361.414,238.741a21.607,21.607,0,0,1-14.314,0,6.062,6.062,0,0,1-3.109-2.372,2.872,2.872,0,0,0-.389,1.428c0,1.531,1.242,2.881,3.5,3.8a21.607,21.607,0,0,0,14.314,0c2.256-.919,3.5-2.269,3.5-3.8a2.873,2.873,0,0,0-.389-1.428A6.063,6.063,0,0,1,361.414,238.741Z" transform="translate(-296.897 -236.37)"/></g><path class="b" d="M330.289,0a14.98,14.98,0,0,0-14.963,14.963c0,5.1,2.415,10.563,7.177,16.251a50.977,50.977,0,0,0,7.087,6.97,1.144,1.144,0,0,0,1.4,0,50.97,50.97,0,0,0,7.087-6.97c4.762-5.687,7.176-11.155,7.176-16.251A14.98,14.98,0,0,0,330.289,0ZM335.8,14.963a5.512,5.512,0,1,1-5.512-5.512A5.512,5.512,0,0,1,335.8,14.963Z" transform="translate(-267.092 0)"/><g transform="translate(17.202 0)"><path class="d" d="M113.78,153.9a19.236,19.236,0,0,0-2.154.122,19.151,19.151,0,0,1,16.97,19c0,6.547-3.114,13.587-9.257,20.923a68.919,68.919,0,0,1-7.713,7.816c.854.734,1.392,1.153,1.454,1.2a1.144,1.144,0,0,0,1.4,0,65.934,65.934,0,0,0,9.167-9.017c6.143-7.336,9.257-14.376,9.257-20.923A19.146,19.146,0,0,0,113.78,153.9Z" transform="translate(-111.626 -130.456)"/><path class="d" d="M401.559,0a15,15,0,0,0-2.154.156,14.986,14.986,0,0,1,12.809,14.807c0,5.1-2.415,10.563-7.176,16.251a53.35,53.35,0,0,1-5.633,5.755c.851.745,1.4,1.172,1.454,1.215a1.144,1.144,0,0,0,1.4,0,50.969,50.969,0,0,0,7.087-6.97c4.762-5.687,7.176-11.155,7.176-16.251A14.98,14.98,0,0,0,401.559,0Z" transform="translate(-355.564 0)"/></g><path class="e" d="M235.863,275.043a1.144,1.144,0,0,1-.005-2.288l1.511-.007h.005a1.144,1.144,0,0,1,.005,2.288l-1.511.007Zm6.043-.027a1.144,1.144,0,0,1-.005-2.288l1.511-.007h.005a1.144,1.144,0,0,1,.005,2.288l-1.511.007Zm6.043-.028a1.144,1.144,0,0,1-.005-2.288l1.51-.007h.005a1.144,1.144,0,0,1,.005,2.288l-1.51.007Zm6.043-.027a1.144,1.144,0,0,1-.005-2.288l1.511-.007h.005a1.144,1.144,0,0,1,.005,2.288l-1.511.007Zm6.043-.027a1.144,1.144,0,0,1-.005-2.288l1.511-.007h.005a1.144,1.144,0,0,1,.005,2.288l-1.511.007Zm6.043-.027a1.144,1.144,0,0,1-.005-2.288h.214a8.622,8.622,0,0,0,1.141-.081,1.144,1.144,0,0,1,.313,2.266,10.955,10.955,0,0,1-1.443.1h-.219Zm5.69-1.723a1.144,1.144,0,0,1-.653-2.084,8.61,8.61,0,0,0,1.033-.841,1.144,1.144,0,0,1,1.578,1.656,10.911,10.911,0,0,1-1.307,1.065A1.139,1.139,0,0,1,271.766,273.183Zm3.617-4.716a1.145,1.145,0,0,1-1.078-1.528,8.52,8.52,0,0,0,.347-1.284,1.144,1.144,0,0,1,2.248.423,10.83,10.83,0,0,1-.441,1.629A1.143,1.143,0,0,1,275.384,268.466Zm.185-5.941a1.144,1.144,0,0,1-1.1-.829,8.506,8.506,0,0,0-.466-1.246,1.144,1.144,0,1,1,2.073-.967,10.792,10.792,0,0,1,.592,1.582,1.145,1.145,0,0,1-1.1,1.46Zm-3.317-4.934a1.139,1.139,0,0,1-.708-.246,8.6,8.6,0,0,0-1.105-.741,1.144,1.144,0,1,1,1.123-1.993,10.915,10.915,0,0,1,1.4.939,1.144,1.144,0,0,1-.709,2.042Zm-5.568-2.073h-.051q-.192-.008-.386-.009h-1.074a1.144,1.144,0,0,1,0-2.288h1.074c.161,0,.325,0,.487.011a1.144,1.144,0,0,1-.05,2.287Zm-6.043-.01H259.13a1.144,1.144,0,1,1,0-2.288h1.511a1.144,1.144,0,1,1,0,2.288Zm-6.043,0h-1.511a1.144,1.144,0,1,1,0-2.288H254.6a1.144,1.144,0,1,1,0,2.288Zm-6.043,0h-1.511a1.144,1.144,0,1,1,0-2.288h1.511a1.144,1.144,0,0,1,0,2.288Zm-5.827-1.138a1.138,1.138,0,0,1-.609-.176,8.606,8.606,0,0,1-1.37-1.073,1.144,1.144,0,1,1,1.586-1.648,6.3,6.3,0,0,0,1,.787,1.144,1.144,0,0,1-.611,2.111Zm-3.324-4.845a1.144,1.144,0,0,1-1.122-.925,8.613,8.613,0,0,1-.158-1.643v-.09a1.144,1.144,0,0,1,1.143-1.131h.014a1.144,1.144,0,0,1,1.13,1.157v.064a6.32,6.32,0,0,0,.116,1.206,1.145,1.145,0,0,1-1.124,1.363Zm1.25-5.74a1.144,1.144,0,0,1-.928-1.811,8.6,8.6,0,0,1,1.153-1.3,1.144,1.144,0,1,1,1.551,1.681,6.315,6.315,0,0,0-.846.956A1.143,1.143,0,0,1,240.653,243.784Zm5.035-3.027a1.144,1.144,0,0,1-.149-2.278,8.653,8.653,0,0,1,1.136-.075h.522a1.144,1.144,0,1,1,0,2.288h-.522a6.36,6.36,0,0,0-.835.055A1.1,1.1,0,0,1,245.688,240.758Z" transform="translate(-198.765 -202.086)"/></g></svg>