<svg xmlns="http://www.w3.org/2000/svg" width="77.451" height="76.996" viewBox="0 0 77.451 76.996"><defs><style>.a{fill:#46738c;}.b{fill:#ff8c46;}.c{fill:#ffb69e;}.d{fill:#343e6b;}.e{fill:#414b82;}.f{fill:#252d5c;}.g{fill:#1b224a;}.h{fill:#fff;}.i{fill:#ff3c3c;}.j{fill:#80391b;}.k{fill:#55c7a6;}.l{fill:#78beff;}.m{fill:#ba6746;}</style></defs><g transform="translate(0 -1.504)"><path class="a" d="M244.153,51.969V29.4a2.436,2.436,0,0,1,2.436-2.436H278.74a2.436,2.436,0,0,1,2.436,2.436V51.969A2.436,2.436,0,0,1,278.74,54.4H246.589A2.436,2.436,0,0,1,244.153,51.969Z" transform="translate(-207.22 -21.611)"/><path class="b" d="M249.8,96.963a1.21,1.21,0,0,1-.75-2.16l9.917-7.82a1.21,1.21,0,0,1,1.5,1.9l-9.917,7.82A1.207,1.207,0,0,1,249.8,96.963Z" transform="translate(-210.983 -72.328)"/><circle class="c" cx="5.27" cy="5.27" r="5.27" transform="translate(14.136 1.504)"/><path class="d" d="M135.232,254.918a3.067,3.067,0,0,1-3.067-3.067V227.336a3.067,3.067,0,0,1,6.134,0v24.515A3.067,3.067,0,0,1,135.232,254.918Z" transform="translate(-112.172 -189.067)"/><path class="e" d="M86.288,254.918a3.067,3.067,0,0,1-3.067-3.067V227.336a3.067,3.067,0,0,1,6.134,0v24.515A3.067,3.067,0,0,1,86.288,254.918Z" transform="translate(-70.632 -189.067)"/><path class="f" d="M76.592,90.641a2.543,2.543,0,0,0-3.5-.819l-5.15,3.2V88.265A6.051,6.051,0,0,0,61.9,82.278H48.15A6.11,6.11,0,0,0,42.007,88.3v18.79a2.556,2.556,0,0,0,5.112,0V88.318a1.029,1.029,0,0,1,1.031-.928h.092v19.434H61.78V87.364H61.9a.975.975,0,0,1,.979.927v9.3a2.544,2.544,0,0,0,3.884,2.148l9.011-5.595A2.544,2.544,0,0,0,76.592,90.641Z" transform="translate(-35.653 -68.555)"/><path class="g" d="M149.545,90.641a2.543,2.543,0,0,0-3.5-.819l-5.15,3.2V88.265a6.051,6.051,0,0,0-6.041-5.987h-6.889v24.546h6.77V87.364h.119a.975.975,0,0,1,.979.927v9.3a2.544,2.544,0,0,0,3.884,2.148l9.011-5.595A2.543,2.543,0,0,0,149.545,90.641Z" transform="translate(-108.606 -68.555)"/><path class="c" d="M250.987,130.823a2.543,2.543,0,0,0-3.5-.819l2.682,4.321A2.543,2.543,0,0,0,250.987,130.823Z" transform="translate(-210.048 -108.736)"/><g transform="translate(6.354 21.252)"><rect class="h" width="5.086" height="1.084" transform="translate(32.839 4.902) rotate(-121.506)"/><path class="h" d="M42,237.56v1.318a2.556,2.556,0,1,0,5.112,0V237.56Z" transform="translate(-42.001 -221.599)"/></g><path class="c" d="M42,245.84v.066a2.556,2.556,0,0,0,5.112,0v-.066Z" transform="translate(-35.647 -207.375)"/><path class="h" d="M102.183,82.278l3.9,10.234,3.9-10.234Z" transform="translate(-86.726 -68.555)"/><path class="i" d="M119.435,85.764l-.866-1.576.747-1.358a.371.371,0,0,0-.325-.55h-2.5a.371.371,0,0,0-.325.55l.749,1.363-.864,1.571a1.053,1.053,0,0,0-.11.714l.533,2.705,1.269,3.331,1.27-3.332.536-2.7A1.053,1.053,0,0,0,119.435,85.764Z" transform="translate(-98.382 -68.557)"/><rect class="f" width="3.376" height="1.041" transform="translate(21.245 21.587)"/><g transform="translate(52.331 45.767)"><circle class="j" cx="5.142" cy="5.142" r="5.142" transform="translate(7.44)"/><path class="j" d="M365.162,372.929H351.842a5.909,5.909,0,0,0-5.9,5.842v5.754H350.9V378.8a.936.936,0,0,1,.938-.9h.049v6.633h13.142v-6.633h.129a.937.937,0,0,1,.938.9v5.729h4.962v-5.754A5.909,5.909,0,0,0,365.162,372.929Z" transform="translate(-345.942 -361.005)"/></g><path class="k" d="M365.163,372.929H361.1a3.991,3.991,0,0,1-5.107,0h-4.145a5.909,5.909,0,0,0-5.9,5.842v3.611h4.962V378.8a.936.936,0,0,1,.938-.9h.049v6.633h13.142v-6.633h.129a.936.936,0,0,1,.938.9v3.586h4.962v-3.611A5.91,5.91,0,0,0,365.163,372.929Z" transform="translate(-293.612 -315.239)"/><g transform="translate(26.168 45.767)"><circle class="c" cx="5.142" cy="5.142" r="5.142" transform="translate(7.44)"/><path class="c" d="M192.2,372.929H178.885a5.909,5.909,0,0,0-5.9,5.842v5.754h4.962V378.8a.936.936,0,0,1,.938-.9h.049v6.633h13.142v-6.633h.129a.937.937,0,0,1,.938.9v5.729h4.962v-5.754A5.909,5.909,0,0,0,192.2,372.929Z" transform="translate(-172.985 -361.005)"/></g><path class="f" d="M192.206,372.929h-4.27a3.991,3.991,0,0,1-5.107,0h-3.942a5.909,5.909,0,0,0-5.9,5.842v3.611h4.962V378.8a.936.936,0,0,1,.938-.9h.049v6.633h13.142v-6.633h.129a.937.937,0,0,1,.938.9v3.586h4.962v-3.611A5.91,5.91,0,0,0,192.206,372.929Z" transform="translate(-146.818 -315.239)"/><g transform="translate(0 45.685)"><circle class="c" cx="5.142" cy="5.142" r="5.142" transform="translate(7.438)"/><path class="c" d="M19.22,372.387H5.9A5.909,5.909,0,0,0,0,378.229v5.754H4.962v-5.729a.936.936,0,0,1,.938-.9h.049v6.633H19.09v-6.634h.129a.937.937,0,0,1,.938.9v5.729H25.12v-5.754A5.909,5.909,0,0,0,19.22,372.387Z" transform="translate(0 -360.464)"/></g><path class="l" d="M19.22,372.387H14.95a3.991,3.991,0,0,1-5.107,0H5.9A5.909,5.909,0,0,0,0,378.229v3.611H4.962v-3.586a.936.936,0,0,1,.938-.9h.049v6.633H19.09v-6.634h.129a.937.937,0,0,1,.938.9v3.586H25.12v-3.611A5.909,5.909,0,0,0,19.22,372.387Z" transform="translate(0 -314.779)"/><g transform="translate(40.707 54.982)"><circle class="c" cx="5.142" cy="5.142" r="5.142" transform="translate(7.439)"/><path class="c" d="M288.319,433.843H275a5.909,5.909,0,0,0-5.9,5.842v5.754h4.962V439.71a.936.936,0,0,1,.938-.9h.049v6.633H288.19V438.8h.129a.937.937,0,0,1,.938.9v5.729h4.962v-5.754A5.909,5.909,0,0,0,288.319,433.843Z" transform="translate(-269.099 -421.92)"/></g><path class="l" d="M288.32,433.843h-4.067a3.991,3.991,0,0,1-5.107,0H275a5.909,5.909,0,0,0-5.9,5.842V443.3h4.962V439.71a.936.936,0,0,1,.938-.9h.049v6.633H288.19V438.8h.129a.937.937,0,0,1,.938.9V443.3h4.962v-3.611A5.909,5.909,0,0,0,288.32,433.843Z" transform="translate(-228.393 -366.938)"/><g transform="translate(14.544 54.982)"><circle class="m" cx="5.142" cy="5.142" r="5.142" transform="translate(7.439)"/><path class="m" d="M115.362,433.843H102.042a5.909,5.909,0,0,0-5.9,5.842v5.754H101.1V439.71a.936.936,0,0,1,.938-.9h.049v6.633h13.142V438.8h.129a.937.937,0,0,1,.938.9v5.729h4.962v-5.754A5.909,5.909,0,0,0,115.362,433.843Z" transform="translate(-96.142 -421.92)"/></g><path class="i" d="M115.362,433.843h-4.27a3.991,3.991,0,0,1-5.107,0h-3.942a5.909,5.909,0,0,0-5.9,5.842V443.3H101.1V439.71a.936.936,0,0,1,.938-.9h.049v6.633h13.142V438.8h.129a.937.937,0,0,1,.938.9V443.3h4.962v-3.611A5.909,5.909,0,0,0,115.362,433.843Z" transform="translate(-81.598 -366.938)"/></g></svg>