<svg id="XMLID_1156_" xmlns="http://www.w3.org/2000/svg" width="84.086" height="84.086" viewBox="0 0 84.086 84.086">
  <path id="XMLID_1446_" d="M83.493,50H13.367A3.367,3.367,0,0,0,10,53.367V114.3a3.367,3.367,0,0,0,3.367,3.367H83.493A3.367,3.367,0,0,0,86.86,114.3V53.367A3.367,3.367,0,0,0,83.493,50Z" transform="translate(-8.358 -41.788)" fill="#fff"/>
  <path id="XMLID_1445_" d="M26.259,50H13.367A3.367,3.367,0,0,0,10,53.367V114.3a3.367,3.367,0,0,0,3.367,3.367H83.493A3.367,3.367,0,0,0,86.86,114.3V53.367A3.367,3.367,0,0,0,83.493,50H70.6" transform="translate(-8.358 -41.788)" fill="#fff"/>
  <path id="XMLID_1410_" d="M83.493,50H13.367A3.367,3.367,0,0,0,10,53.367V114.3a3.367,3.367,0,0,0,3.367,3.367H83.493A3.367,3.367,0,0,0,86.86,114.3V53.367A3.367,3.367,0,0,0,83.493,50Z" transform="translate(-8.358 -41.788)" fill="#fff"/>
  <rect id="XMLID_1498_" width="61" height="39" transform="translate(9 29)" fill="#c9f3ff"/>
  <rect id="XMLID_3609_" width="12.219" height="12.646" transform="translate(21.744 42.207)" fill="#ff5d5d"/>
  <path id="XMLID_2244_" d="M83.493,50H13.367A3.367,3.367,0,0,0,10,53.367v9.772H86.86V53.367A3.367,3.367,0,0,0,83.493,50Z" transform="translate(-8.358 -41.788)" fill="#a0e557"/>
  <g id="XMLID_2241_" transform="translate(18.558 1.642)">
    <path id="XMLID_2243_" d="M116.285,23.138h0A3.285,3.285,0,0,1,113,19.854V13.285A3.285,3.285,0,0,1,116.285,10h0a3.285,3.285,0,0,1,3.285,3.285v6.569A3.285,3.285,0,0,1,116.285,23.138Z" transform="translate(-113 -10)" fill="#72d8ff"/>
    <path id="XMLID_2242_" d="M338.285,23.138h0a3.285,3.285,0,0,0,3.285-3.285V13.285A3.285,3.285,0,0,0,338.285,10h0A3.285,3.285,0,0,0,335,13.285v6.569A3.285,3.285,0,0,0,338.285,23.138Z" transform="translate(-298.541 -10)" fill="#72d8ff"/>
  </g>
  <circle id="XMLID_1443_" cx="14" cy="14" r="14" transform="translate(55 55)" fill="#ff5d5d"/>
  <g id="XMLID_416_">
    <path id="XMLID_419_" d="M80.144,58.357V11.578a5.015,5.015,0,0,0-5.009-5.009H63.229V4.927a4.927,4.927,0,0,0-9.854,0V6.569H26.77V4.927a4.927,4.927,0,1,0-9.854,0V6.569H5.009A5.015,5.015,0,0,0,0,11.578V72.508a5.015,5.015,0,0,0,5.009,5.009H27.394a1.642,1.642,0,1,0,0-3.285H5.009a1.726,1.726,0,0,1-1.724-1.724V11.578A1.726,1.726,0,0,1,5.009,9.854H16.916V11.5a4.927,4.927,0,1,0,9.854,0V9.854H53.375V11.5a4.927,4.927,0,1,0,9.854,0V9.854H75.135a1.726,1.726,0,0,1,1.724,1.724v8.129H14.781a1.642,1.642,0,1,0,0,3.285H76.86V55.582a15.352,15.352,0,0,0-4.6-1.943V29.233a1.642,1.642,0,0,0-1.642-1.642H9.525a1.642,1.642,0,0,0-1.642,1.642V67.991a1.642,1.642,0,0,0,1.642,1.642H53.243a15.322,15.322,0,0,0,1.013,4.6H40.532a1.642,1.642,0,1,0,0,3.285H56.019a15.431,15.431,0,1,0,24.125-19.16ZM23.485,11.5a1.642,1.642,0,0,1-3.285,0V4.927a1.642,1.642,0,1,1,3.285,0Zm36.459,0a1.642,1.642,0,0,1-3.285,0V4.927a1.642,1.642,0,0,1,3.285,0Zm8.7,41.715a15.5,15.5,0,0,0-2.248.164H60.043V43.85h8.934v9.365C68.868,53.212,68.758,53.211,68.648,53.211ZM53.382,66.349H47.824v-9.69h8.934v2.154A15.379,15.379,0,0,0,53.382,66.349ZM11.168,43.85H20.1v9.525H11.168Zm12.219,0h8.934v9.525H23.386Zm24.437,0h8.934v9.525H47.824Zm-3.285,9.525H35.605V43.85h8.934Zm3.285-12.81v-9.69h8.934v9.69Zm-3.285,0H35.605v-9.69h8.934Zm-12.219,0H23.386v-9.69h8.934Zm0,16.095v9.69H23.386v-9.69Zm3.285,0h8.934v9.69H35.605v-9.69ZM68.977,40.565H60.043v-9.69h8.934ZM20.1,30.875v9.69H11.168v-9.69ZM11.168,56.659H20.1v9.69H11.168ZM68.648,80.8A12.153,12.153,0,1,1,80.8,68.648,12.167,12.167,0,0,1,68.648,80.8Z"/>
    <path id="XMLID_1115_" d="M395.31,391.314l-5.079,5.079-2.26-2.26a1.642,1.642,0,1,0-2.323,2.323l3.421,3.421a1.642,1.642,0,0,0,2.323,0l6.241-6.241a1.642,1.642,0,1,0-2.322-2.323Z" transform="translate(-321.91 -326.646)"/>
    <path id="XMLID_1116_" d="M198.442,452a1.643,1.643,0,1,0,1.161.481A1.655,1.655,0,0,0,198.442,452Z" transform="translate(-164.479 -377.768)"/>
    <path id="XMLID_1120_" d="M42.8,122.8a1.641,1.641,0,1,0-1.161.481A1.654,1.654,0,0,0,42.8,122.8Z" transform="translate(-33.431 -100.292)"/>
  </g>
</svg>
