<svg xmlns="http://www.w3.org/2000/svg" width="74" height="74" viewBox="0 0 74 74"><defs><style>.a{fill:#898890;}.b{fill:#ffcd00;}.c{fill:#ff5023;}.d{fill:#ffe477;}.e{fill:#ff6243;}.f{fill:#c6c5ca;}.g{fill:#e0e0e2;}.h{fill:#ffaf46;}</style></defs><path class="a" d="M32,144H95.793v51.034H32Zm0,0" transform="translate(-26.897 -121.034)"/><path class="a" d="M65.862,7.655H106.69V5.1a5.1,5.1,0,0,0-5.1-5.1H53.1A5.1,5.1,0,0,0,48,5.1V7.655Zm0,0" transform="translate(-40.345)"/><path class="b" d="M244.759,63.31,243.483,48H232V63.31Zm0,0" transform="translate(-195 -40.345)"/><path class="c" d="M305.276,63.31h12.759L315.483,48H304Zm0,0" transform="translate(-255.517 -40.345)"/><path class="b" d="M382.379,48H376l2.552,15.31h11.483L386.207,48Zm0,0" transform="translate(-316.034 -40.345)"/><path class="c" d="M164.759,63.31V48H153.276L152,63.31Zm0,0" transform="translate(-127.759 -40.345)"/><path class="b" d="M86.034,48H74.552L72,63.31H84.759Zm0,0" transform="translate(-60.517 -40.345)"/><path class="c" d="M14.034,48H3.828L0,63.31H11.483Zm0,0" transform="translate(0 -40.345)"/><path class="d" d="M232,144v1.276a6.51,6.51,0,0,0,.523,2.552,6.393,6.393,0,0,0,11.712,0,6.509,6.509,0,0,0,.523-2.552V144Zm0,0" transform="translate(-195 -121.034)"/><path class="e" d="M312,145.276a6.51,6.51,0,0,0,.523,2.552,6.393,6.393,0,0,0,11.712,0,6.509,6.509,0,0,0,.523-2.552V144H312Zm0,0" transform="translate(-262.241 -121.034)"/><path class="d" d="M392,145.276v.638a5.6,5.6,0,0,0,.331,1.914,5.724,5.724,0,0,0,5.41,3.828,5.205,5.205,0,0,0,.638-.038,5.742,5.742,0,0,0,5.1-5.7V144H392Zm0,0" transform="translate(-329.483 -121.034)"/><path class="e" d="M152,144v1.276a6.509,6.509,0,0,0,.523,2.552,6.393,6.393,0,0,0,11.712,0,6.509,6.509,0,0,0,.523-2.552V144Zm0,0" transform="translate(-127.759 -121.034)"/><path class="d" d="M72,144v1.276a6.509,6.509,0,0,0,.523,2.552,6.393,6.393,0,0,0,11.712,0,6.509,6.509,0,0,0,.523-2.552V144Zm0,0" transform="translate(-60.517 -121.034)"/><path class="e" d="M11.151,147.828a5.6,5.6,0,0,0,.331-1.914V144H0v1.914a5.742,5.742,0,0,0,5.1,5.7,5.2,5.2,0,0,0,.638.038,5.724,5.724,0,0,0,5.41-3.828Zm0,0" transform="translate(0 -121.034)"/><path class="f" d="M64,256H81.862v33.172H64Zm0,0" transform="translate(-53.793 -215.172)"/><path class="g" d="M249.862,305.276V304H232v6.379a8.918,8.918,0,0,0,16.24,5.1h1.622a5.1,5.1,0,1,0,0-10.207Zm1.8,6.906a2.535,2.535,0,0,1-1.8.749h-.321a10.123,10.123,0,0,0,.255-1.476,9.117,9.117,0,0,0,.066-1.075v-2.552a2.552,2.552,0,0,1,1.8,4.355Zm0,0" transform="translate(-195 -255.517)"/><path class="g" d="M237.69,410.552H217.276a1.276,1.276,0,1,1,0-2.552H237.69a1.276,1.276,0,1,1,0,2.552Zm0,0" transform="translate(-181.552 -342.931)"/><g transform="translate(40.828 35.724)"><path class="h" d="M257.276,234.207A1.276,1.276,0,0,1,256,232.931c0-2.552,1.7-3.828,3.062-4.848,1.3-.977,2.042-1.591,2.042-2.807a1.276,1.276,0,0,1,2.552,0c0,2.552-1.7,3.828-3.062,4.848-1.3.977-2.042,1.591-2.042,2.807A1.276,1.276,0,0,1,257.276,234.207Zm0,0" transform="translate(-256 -224)"/><path class="h" d="M297.276,234.207A1.276,1.276,0,0,1,296,232.931c0-2.552,1.7-3.828,3.062-4.848,1.3-.977,2.041-1.591,2.041-2.807a1.276,1.276,0,0,1,2.552,0c0,2.552-1.7,3.828-3.062,4.848-1.3.977-2.042,1.591-2.042,2.807A1.276,1.276,0,0,1,297.276,234.207Zm0,0" transform="translate(-289.621 -224)"/></g></svg>