<svg xmlns="http://www.w3.org/2000/svg" width="73.09" height="81.524" viewBox="0 0 73.09 81.524"><defs><style>.a{fill:#ff5023;}.b{fill:#b38b63;}.c{fill:#a97c50;}.d{fill:#ffbcab;}.e{fill:#ffda44;}.f{fill:#df461f;}.g{fill:#ffa733;}.h{fill:#6d6e71;}</style></defs><g transform="translate(-9 -3)"><path class="a" d="M36.406,11H47.65v2.811H36.406a1.406,1.406,0,0,1,0-2.811Z" transform="translate(10.545 3.245)"/><path class="b" d="M9,21H48.356V54.734H9Z" transform="translate(0 7.3)"/><path class="c" d="M45.545,21V40.678a8.433,8.433,0,0,1-8.434,8.433H9v5.622H48.356V21Z" transform="translate(0 7.3)"/><path class="d" d="M43,13v8.433a8.433,8.433,0,0,0,8.434,8.434v5.622h8.434V29.867a5.085,5.085,0,0,0,2.811-4.548V13Z" transform="translate(13.79 4.056)"/><path class="a" d="M60.678,29H49.434A8.434,8.434,0,0,0,41,37.433V68.356H69.112V37.433A8.433,8.433,0,0,0,60.678,29Z" transform="translate(12.979 10.545)"/><path class="e" d="M63.923,47.056V38.622a5.622,5.622,0,0,0-11.245,0v5.622a2.811,2.811,0,0,1-2.811,2.811H33V58.3H52.678A11.245,11.245,0,0,0,63.923,47.056Z" transform="translate(9.734 12.167)"/><path class="f" d="M35.433,42H27V56.056h8.433V42Z" transform="translate(7.3 15.818)"/><path class="f" d="M64.489,17.056V14.245a11.245,11.245,0,1,0-22.489,0v2.811Z" transform="translate(13.384 0)"/><path class="g" d="M24.217,32.245l4.217,2.811V21H20V35.056Z" transform="translate(4.461 7.3)"/><path class="d" d="M19,45a5.622,5.622,0,0,0,5.622,5.622h5.622V45Z" transform="translate(4.056 17.034)"/><path class="h" d="M41,57H69.112v5.622H41Z" transform="translate(12.979 21.901)"/></g></svg>