<svg xmlns="http://www.w3.org/2000/svg" width="77.522" height="77.529" viewBox="0 0 77.522 77.529"><defs><style>.a{fill:#f8e8ab;}.b{fill:#393f4b;}.c{fill:#ba3a23;}.d{fill:#464f5e;}.e{fill:#edc100;}.f{fill:#f1d24b;}.g{fill:#e2be50;}.h{fill:#e04c34;}</style></defs><g transform="translate(0 0)"><path class="a" d="M66.751,44.366c0,7.378-1.2,13.366-2.673,13.366a206.271,206.271,0,0,0-27.106-2.513l-3.315-1.577A8,8,0,0,0,32,43.738C31.96,39.3,34.032,35.5,33.19,33.62A214.889,214.889,0,0,0,64.078,31C65.548,31,66.751,36.988,66.751,44.366Z" transform="translate(10.77 10.434)"/><path class="b" d="M20.045,22.8.892,15.959a1.337,1.337,0,0,1,0-2.513L38.289.08a1.4,1.4,0,0,1,.936,0l37.4,13.366a1.337,1.337,0,0,1,0,2.513L68.068,19.02l-3.7,1.323-6.9,2.459Z" transform="translate(0.004 0)"/><g transform="translate(2.673 41.434)"><path class="a" d="M2.187,50.97,2,51.01A.426.426,0,0,0,2.187,50.97Z" transform="translate(-2 -24.278)"/><path class="a" d="M2.16,31.027A1.512,1.512,0,0,1,2,31,.668.668,0,0,1,2.16,31.027Z" transform="translate(-2 -31)"/><path class="a" d="M2.13,31.02A212.535,212.535,0,0,0,31.2,33.573c.882,1.951,4.17,6.055,4.17,10.786,0,.321,0,.628-.013.936a8.019,8.019,0,0,0-.294,8.34l-3.3,1.5A217.163,217.163,0,0,0,2.143,57.685Z" transform="translate(-1.956 -30.993)"/></g><path class="c" d="M25.364,44.652c.013-.307.013-.615.013-.936a30.689,30.689,0,0,0-1.5-10.786c2.192.067,4.478.094,6.843.094,1.778,0,3.515-.013,5.2-.053a29.312,29.312,0,0,1,1.47,10.118Z" transform="translate(8.038 11.084)"/><path class="c" d="M32.8,52.03l-3.555,8.514a1.337,1.337,0,0,1-2.473.04l-.976-2.245-2.245.962a1.327,1.327,0,0,1-1.764-1.711l3.395-8.153.628-1.5Z" transform="translate(7.3 16.136)"/><path class="c" d="M36.99,47.94l.655,1.577,3.368,8.073A1.327,1.327,0,0,1,39.249,59.3L37,58.339l-.976,2.245a1.337,1.337,0,0,1-2.473-.04L30,52.03Z" transform="translate(10.097 16.136)"/><path class="d" d="M15,28.712V14.01C15,11.791,23.38,10,33.712,10s18.712,1.791,18.712,4.01v14.7Z" transform="translate(5.049 3.366)"/><path class="e" d="M50.337,17.881A1.337,1.337,0,0,1,49,16.545V7.777a1.337,1.337,0,0,1,2.673,0v8.768A1.337,1.337,0,0,1,50.337,17.881Z" transform="translate(16.492 2.168)"/><path class="f" d="M48,16.673v4.01a1.337,1.337,0,0,0,1.337,1.337H52.01a1.337,1.337,0,0,0,1.337-1.337v-4.01a2.673,2.673,0,1,0-5.346,0Z" transform="translate(16.156 4.712)"/><ellipse class="b" cx="19" cy="4" rx="19" ry="4" transform="translate(19.761 27.762)"/><path class="g" d="M5.346,44.366c0,7.057-1.1,12.845-2.486,13.326a.426.426,0,0,1-.187.04C1.2,57.732,0,51.744,0,44.366S1.2,31,2.673,31a.049.049,0,0,1,.04.013c.027,0,.067.013.12.013h.013C4.237,31.495,5.346,37.282,5.346,44.366Z" transform="translate(0 10.434)"/><path class="h" d="M40.039,47.02A8.019,8.019,0,1,1,32.019,39a7.856,7.856,0,0,1,5.333,2.045A7.967,7.967,0,0,1,40.039,47.02Z" transform="translate(8.078 13.127)"/></g></svg>