<svg xmlns="http://www.w3.org/2000/svg" width="74.381" height="71.642" viewBox="0 0 74.381 71.642"><defs><style>.a{fill:#d0f4ef;}.b{fill:#abe0da;}.c{fill:#f72b2b;}.d{fill:#d61b1f;}.e{fill:#628fb1;}.f{fill:#ffbd47;}.g{fill:#38aaff;}</style></defs><g transform="translate(0 -0.5)"><path class="a" d="M66.77,89.762H1.8a1.8,1.8,0,0,1-1.8-1.8V34.542a5.7,5.7,0,0,1,5.7-5.7H62.865a5.7,5.7,0,0,1,5.7,5.7V87.964a1.8,1.8,0,0,1-1.8,1.8Zm0,0" transform="translate(-0.003 -24.223)"/><path class="b" d="M406.336,34.546V87.967a1.8,1.8,0,0,1-1.8,1.8h-5.452a1.8,1.8,0,0,0,1.8-1.8V34.546a5.7,5.7,0,0,0-5.7-5.7h5.452A5.7,5.7,0,0,1,406.336,34.546Zm0,0" transform="translate(-337.773 -24.226)"/><path class="c" d="M68.563,34.546v8.72H0v-8.72a5.7,5.7,0,0,1,5.7-5.7H62.863A5.7,5.7,0,0,1,68.563,34.546Zm0,0" transform="translate(0 -24.226)"/><path class="d" d="M406.336,34.546v8.72h-5.451v-8.72a5.7,5.7,0,0,0-5.7-5.7h5.452A5.7,5.7,0,0,1,406.336,34.546Zm0,0" transform="translate(-337.773 -24.226)"/><g transform="translate(6.524 23.437)"><path class="e" d="M49.933,160.632h-3.9a1.122,1.122,0,1,1,0-2.245h3.9a1.122,1.122,0,1,1,0,2.245Zm0,0" transform="translate(-44.91 -158.387)"/><path class="e" d="M132.465,160.632h-3.9a1.122,1.122,0,1,1,0-2.245h3.9a1.122,1.122,0,1,1,0,2.245Zm0,0" transform="translate(-115.451 -158.387)"/><path class="e" d="M215,160.632h-3.9a1.122,1.122,0,0,1,0-2.245H215a1.122,1.122,0,0,1,0,2.245Zm0,0" transform="translate(-185.997 -158.387)"/><path class="e" d="M297.532,160.632h-3.9a1.122,1.122,0,0,1,0-2.245h3.9a1.122,1.122,0,0,1,0,2.245Zm0,0" transform="translate(-256.538 -158.387)"/><path class="e" d="M380.066,160.632h-3.9a1.122,1.122,0,0,1,0-2.245h3.9a1.122,1.122,0,0,1,0,2.245Zm0,0" transform="translate(-327.083 -158.387)"/><path class="e" d="M49.933,199.483h-3.9a1.122,1.122,0,0,1,0-2.245h3.9a1.122,1.122,0,1,1,0,2.245Zm0,0" transform="translate(-44.91 -191.594)"/><path class="e" d="M132.465,199.483h-3.9a1.122,1.122,0,1,1,0-2.245h3.9a1.122,1.122,0,1,1,0,2.245Zm0,0" transform="translate(-115.451 -191.594)"/><path class="e" d="M215,199.483h-3.9a1.122,1.122,0,0,1,0-2.245H215a1.122,1.122,0,0,1,0,2.245Zm0,0" transform="translate(-185.997 -191.594)"/><path class="e" d="M297.532,199.483h-3.9a1.122,1.122,0,0,1,0-2.245h3.9a1.122,1.122,0,0,1,0,2.245Zm0,0" transform="translate(-256.538 -191.594)"/><path class="e" d="M380.066,199.483h-3.9a1.122,1.122,0,0,1,0-2.245h3.9a1.122,1.122,0,0,1,0,2.245Zm0,0" transform="translate(-327.083 -191.594)"/></g><path class="c" d="M143.239,273.492a3.286,3.286,0,0,1-2.332-.966l-5.771-5.771a3.3,3.3,0,0,1,4.664-4.664l3.439,3.44,13.473-13.473a3.3,3.3,0,0,1,4.664,4.664l-15.8,15.8a3.287,3.287,0,0,1-2.332.966Zm0,0" transform="translate(-114.679 -214.187)"/><path class="f" d="M62.58,9.161H60.495a1.6,1.6,0,0,1-1.6-1.6V2.1a1.6,1.6,0,0,1,1.6-1.6H62.58a1.6,1.6,0,0,1,1.6,1.6V7.557A1.6,1.6,0,0,1,62.58,9.161Zm0,0" transform="translate(-50.335 0)"/><path class="f" d="M165.713,9.161h-2.086a1.6,1.6,0,0,1-1.6-1.6V2.1a1.6,1.6,0,0,1,1.6-1.6h2.086a1.6,1.6,0,0,1,1.6,1.6V7.557A1.6,1.6,0,0,1,165.713,9.161Zm0,0" transform="translate(-138.485 0)"/><path class="f" d="M268.846,9.161H266.76a1.6,1.6,0,0,1-1.6-1.6V2.1a1.6,1.6,0,0,1,1.6-1.6h2.086a1.6,1.6,0,0,1,1.6,1.6V7.557A1.6,1.6,0,0,1,268.846,9.161Zm0,0" transform="translate(-226.636 0)"/><path class="f" d="M371.975,9.161H369.89a1.6,1.6,0,0,1-1.6-1.6V2.1a1.6,1.6,0,0,1,1.6-1.6h2.085a1.6,1.6,0,0,1,1.6,1.6V7.557A1.6,1.6,0,0,1,371.975,9.161Zm0,0" transform="translate(-314.783 0)"/><path class="g" d="M349.976,317.854a13.769,13.769,0,1,1-13.769-13.769A13.769,13.769,0,0,1,349.976,317.854Zm0,0" transform="translate(-275.595 -259.482)"/><path class="a" d="M368.86,340.6a9.9,9.9,0,1,1-9.9-9.9A9.9,9.9,0,0,1,368.86,340.6Zm0,0" transform="translate(-298.346 -282.233)"/><path class="e" d="M410.615,338.147a1.122,1.122,0,0,1-1.123-1.122v-1.367a1.122,1.122,0,0,1,2.245,0v1.367A1.122,1.122,0,0,1,410.615,338.147Zm0,0" transform="translate(-350.003 -285.508)"/><path class="e" d="M410.615,441.944a1.123,1.123,0,0,1-1.123-1.122v-1.367a1.122,1.122,0,0,1,2.245,0v1.367A1.123,1.123,0,0,1,410.615,441.944Zm0,0" transform="translate(-350.003 -374.226)"/><path class="e" d="M459.173,393.385h-1.367a1.122,1.122,0,1,1,0-2.244h1.367a1.122,1.122,0,1,1,0,2.244Zm0,0" transform="translate(-390.339 -333.891)"/><path class="f" d="M413.089,380.007h-2.474a1.122,1.122,0,0,1-1.122-1.122v-2.273a1.122,1.122,0,1,1,2.245,0v1.151h1.351a1.122,1.122,0,0,1,0,2.244Zm0,0" transform="translate(-350.003 -320.512)"/><path class="e" d="M355.38,393.385h-1.367a1.122,1.122,0,1,1,0-2.244h1.367a1.122,1.122,0,1,1,0,2.244Zm0,0" transform="translate(-301.624 -333.891)"/></g></svg>