<svg xmlns="http://www.w3.org/2000/svg" width="82.172" height="82.172" viewBox="0 0 82.172 82.172"><defs><style>.a{fill:#2b6181;}.b{fill:#43809f;}.c{fill:#3a7190;}.d{fill:#ff7043;}.e{fill:#ff5722;}.f{fill:#fdeedf;}.g{fill:#f0d6c0;}.h{fill:#b2ebf2;}.i{fill:#80deea;}.j{fill:#a35418;}.k{fill:#8c4815;}</style></defs><path class="a" d="M420.635,57.229a1.2,1.2,0,0,0-1.2,1.2V73.671a1.2,1.2,0,1,0,2.407,0V58.433A1.2,1.2,0,0,0,420.635,57.229Z" transform="translate(-352.116 -48.044)"/><g transform="translate(27.317 5.376)"><path class="a" d="M171.41,33.5a1.2,1.2,0,0,0-1.2,1.2v9.325a1.2,1.2,0,0,0,2.407,0V34.7A1.2,1.2,0,0,0,171.41,33.5Z" transform="translate(-170.206 -33.5)"/><path class="a" d="M233.222,33.5a1.2,1.2,0,0,0-1.2,1.2v9.325a1.2,1.2,0,0,0,2.407,0V34.7A1.2,1.2,0,0,0,233.222,33.5Z" transform="translate(-222.098 -33.5)"/></g><path class="b" d="M64.289,211.729H47.9V160.32a.642.642,0,0,1,.642-.642H64.289Z" transform="translate(-40.215 -134.051)"/><path class="c" d="M111.775,159.678h4.96v52.051h-4.96Z" transform="translate(-93.836 -134.051)"/><path class="b" d="M378.386,211.729H362V159.678h15.744a.642.642,0,0,1,.642.642Z" transform="translate(-303.902 -134.051)"/><path class="c" d="M433.191,159.678v52.051h4.96V160.32a.642.642,0,0,0-.642-.642Z" transform="translate(-363.667 -134.051)"/><path class="d" d="M172.995,8.267h-15.25a.642.642,0,0,1-.642-.642V.642A.642.642,0,0,1,157.745,0h15.25a.642.642,0,0,1,.642.642V7.625A.642.642,0,0,1,172.995,8.267Z" transform="translate(-131.889)"/><path class="e" d="M229.215,0V8.267h4.318a.642.642,0,0,0,.642-.642V.642A.642.642,0,0,0,233.533,0Z" transform="translate(-192.428)"/><path class="f" d="M179.054,93.212V155.4H142.68V93.212a.642.642,0,0,1,.642-.642h35.09A.642.642,0,0,1,179.054,93.212Z" transform="translate(-119.781 -77.713)"/><path class="g" d="M338.414,92.565v62.828h4.96V93.207a.642.642,0,0,0-.642-.642Z" transform="translate(-284.101 -77.709)"/><path class="h" d="M173.586,134.954H200.04v4.96H173.586Z" transform="translate(-145.727 -113.295)"/><path class="i" d="M307.509,134.954h4.96v4.96h-4.96Z" transform="translate(-258.156 -113.295)"/><path class="h" d="M173.586,192.644H200.04v4.96H173.586Z" transform="translate(-145.727 -161.726)"/><path class="i" d="M307.509,192.644h4.96v4.96h-4.96Z" transform="translate(-258.156 -161.726)"/><path class="h" d="M173.586,250.334H200.04v4.96H173.586Z" transform="translate(-145.727 -210.157)"/><path class="i" d="M307.509,250.334h4.96v4.96h-4.96Z" transform="translate(-258.156 -210.157)"/><path class="h" d="M173.586,308.024H200.04v4.96H173.586Z" transform="translate(-145.727 -258.589)"/><path class="i" d="M307.509,308.024h4.96v4.96h-4.96Z" transform="translate(-258.156 -258.589)"/><path class="h" d="M174.089,365.714h26.454v4.96H174.089Z" transform="translate(-146.149 -307.02)"/><path class="i" d="M308.013,365.714h4.96v4.96h-4.96Z" transform="translate(-258.579 -307.02)"/><path class="h" d="M196.249,433.706h19.179v7.275H196.249Z" transform="translate(-164.753 -364.1)"/><path class="i" d="M284.845,433.706h4.96v7.275h-4.96Z" transform="translate(-239.13 -364.1)"/><path class="h" d="M73.37,192.644h9.92v4.96H73.37Z" transform="translate(-61.595 -161.726)"/><path class="i" d="M104.275,192.644h4.96v4.96h-4.96Z" transform="translate(-87.54 -161.726)"/><path class="h" d="M73.37,250.334h9.92v4.96H73.37Z" transform="translate(-61.595 -210.157)"/><path class="i" d="M104.275,250.334h4.96v4.96h-4.96Z" transform="translate(-87.54 -210.157)"/><path class="h" d="M73.37,308.024h9.92v4.96H73.37Z" transform="translate(-61.595 -258.589)"/><path class="i" d="M104.275,308.024h4.96v4.96h-4.96Z" transform="translate(-87.54 -258.589)"/><path class="h" d="M73.37,365.714h9.92v4.96H73.37Z" transform="translate(-61.595 -307.02)"/><path class="i" d="M104.275,365.714h4.96v4.96h-4.96Z" transform="translate(-87.54 -307.02)"/><path class="h" d="M376.82,192.644h9.92v4.96h-9.92Z" transform="translate(-316.343 -161.726)"/><path class="i" d="M407.725,192.644h4.96v4.96h-4.96Z" transform="translate(-342.288 -161.726)"/><path class="h" d="M376.82,250.334h9.92v4.96h-9.92Z" transform="translate(-316.343 -210.157)"/><path class="i" d="M407.725,250.334h4.96v4.96h-4.96Z" transform="translate(-342.288 -210.157)"/><path class="h" d="M376.82,308.024h9.92v4.96h-9.92Z" transform="translate(-316.343 -258.589)"/><path class="i" d="M407.725,308.024h4.96v4.96h-4.96Z" transform="translate(-342.288 -258.589)"/><path class="h" d="M377.85,365.714h9.92v4.96h-9.92Z" transform="translate(-317.208 -307.02)"/><path class="i" d="M408.755,365.714h4.96v4.96h-4.96Z" transform="translate(-343.153 -307.02)"/><g transform="translate(10.572 20.455)"><path class="a" d="M193.743,127.454H167.29a1.2,1.2,0,0,0-1.2,1.2v4.96a1.2,1.2,0,0,0,1.2,1.2h26.454a1.2,1.2,0,0,0,1.2-1.2v-4.96A1.2,1.2,0,0,0,193.743,127.454Zm-1.2,4.96H168.493v-2.553H192.54Z" transform="translate(-150.002 -127.454)"/><path class="a" d="M193.743,185.144H167.29a1.2,1.2,0,0,0-1.2,1.2v4.96a1.2,1.2,0,0,0,1.2,1.2h26.454a1.2,1.2,0,0,0,1.2-1.2v-4.96A1.2,1.2,0,0,0,193.743,185.144Zm-1.2,4.96H168.493v-2.553H192.54Z" transform="translate(-150.002 -175.885)"/><path class="a" d="M193.743,242.834H167.29a1.2,1.2,0,0,0-1.2,1.2V249a1.2,1.2,0,0,0,1.2,1.2h26.454a1.2,1.2,0,0,0,1.2-1.2v-4.96A1.2,1.2,0,0,0,193.743,242.834Zm-1.2,4.96H168.493v-2.553H192.54Z" transform="translate(-150.002 -224.316)"/><path class="a" d="M193.743,300.524H167.29a1.2,1.2,0,0,0-1.2,1.2v4.96a1.2,1.2,0,0,0,1.2,1.2h26.454a1.2,1.2,0,0,0,1.2-1.2v-4.96A1.2,1.2,0,0,0,193.743,300.524Zm-1.2,4.96H168.493v-2.553H192.54Z" transform="translate(-150.002 -272.748)"/><path class="a" d="M193.743,358.214H167.29a1.2,1.2,0,0,0-1.2,1.2v4.96a1.2,1.2,0,0,0,1.2,1.2h26.454a1.2,1.2,0,0,0,1.2-1.2v-4.96A1.2,1.2,0,0,0,193.743,358.214Zm-1.2,4.96H168.493v-2.553H192.54Z" transform="translate(-150.002 -321.179)"/><path class="a" d="M209.132,426.21H189.954a1.2,1.2,0,0,0-1.2,1.2v8.076h2.407v-6.872h16.771v6.872h2.407v-8.076A1.2,1.2,0,0,0,209.132,426.21Z" transform="translate(-169.029 -378.262)"/><path class="a" d="M76.994,185.144h-9.92a1.2,1.2,0,0,0-1.2,1.2v4.96a1.2,1.2,0,0,0,1.2,1.2h9.92a1.2,1.2,0,0,0,1.2-1.2v-4.96A1.2,1.2,0,0,0,76.994,185.144Zm-1.2,4.96H68.277v-2.553H75.79V190.1Z" transform="translate(-65.87 -175.885)"/><path class="a" d="M76.994,242.834h-9.92a1.2,1.2,0,0,0-1.2,1.2V249a1.2,1.2,0,0,0,1.2,1.2h9.92a1.2,1.2,0,0,0,1.2-1.2v-4.96A1.2,1.2,0,0,0,76.994,242.834Zm-1.2,4.96H68.277v-2.553H75.79v2.553Z" transform="translate(-65.87 -224.316)"/><path class="a" d="M76.994,300.524h-9.92a1.2,1.2,0,0,0-1.2,1.2v4.96a1.2,1.2,0,0,0,1.2,1.2h9.92a1.2,1.2,0,0,0,1.2-1.2v-4.96A1.2,1.2,0,0,0,76.994,300.524Zm-1.2,4.96H68.277v-2.553H75.79v2.553Z" transform="translate(-65.87 -272.748)"/><path class="a" d="M76.994,358.214h-9.92a1.2,1.2,0,0,0-1.2,1.2v4.96a1.2,1.2,0,0,0,1.2,1.2h9.92a1.2,1.2,0,0,0,1.2-1.2v-4.96A1.2,1.2,0,0,0,76.994,358.214Zm-1.2,4.96H68.277v-2.553H75.79v2.553Z" transform="translate(-65.87 -321.179)"/><path class="a" d="M380.444,185.144h-9.92a1.2,1.2,0,0,0-1.2,1.2v4.96a1.2,1.2,0,0,0,1.2,1.2h9.92a1.2,1.2,0,0,0,1.2-1.2v-4.96A1.2,1.2,0,0,0,380.444,185.144Zm-1.2,4.96h-7.513v-2.553h7.513V190.1Z" transform="translate(-320.619 -175.885)"/><path class="a" d="M380.444,242.834h-9.92a1.2,1.2,0,0,0-1.2,1.2V249a1.2,1.2,0,0,0,1.2,1.2h9.92a1.2,1.2,0,0,0,1.2-1.2v-4.96A1.2,1.2,0,0,0,380.444,242.834Zm-1.2,4.96h-7.513v-2.553h7.513v2.553Z" transform="translate(-320.619 -224.316)"/><path class="a" d="M380.444,300.524h-9.92a1.2,1.2,0,0,0-1.2,1.2v4.96a1.2,1.2,0,0,0,1.2,1.2h9.92a1.2,1.2,0,0,0,1.2-1.2v-4.96A1.2,1.2,0,0,0,380.444,300.524Zm-1.2,4.96h-7.513v-2.553h7.513v2.553Z" transform="translate(-320.619 -272.748)"/><path class="a" d="M380.444,358.214h-9.92a1.2,1.2,0,0,0-1.2,1.2v4.96a1.2,1.2,0,0,0,1.2,1.2h9.92a1.2,1.2,0,0,0,1.2-1.2v-4.96A1.2,1.2,0,0,0,380.444,358.214Zm-1.2,4.96h-7.513v-2.553h7.513v2.553Z" transform="translate(-320.619 -321.179)"/></g><path class="j" d="M79.526,484.325H2.645a2.645,2.645,0,0,1,0-5.291H79.526a2.645,2.645,0,0,1,0,5.291Z" transform="translate(0 -402.153)"/><path class="k" d="M469.572,479.034h-4.96a2.645,2.645,0,1,1,0,5.291h4.96a2.645,2.645,0,0,0,0-5.291Z" transform="translate(-390.046 -402.153)"/></svg>