<svg xmlns="http://www.w3.org/2000/svg" width="78.001" height="78.001" viewBox="0 0 78.001 78.001"><defs><style>.a{fill:#ff933b;}.b{fill:#f27d27;}.c{fill:#feccc1;}.d{fill:#f9b3a7;}.e{fill:#636363;}.f{fill:#494949;}.g{fill:#ddf5ff;}.h{fill:#8db0ff;}.i{fill:#669af7;}.j{fill:#ffd664;}.k{fill:#f9c646;}</style></defs><g transform="translate(0)"><path class="a" d="M51.207,457.31H1.585A1.586,1.586,0,0,1,0,455.724v-6.659a1.586,1.586,0,0,1,1.585-1.585H51.207Zm0,0" transform="translate(0 -379.309)"/><path class="b" d="M47.719,447.48a12.643,12.643,0,0,0-1.109,5.181v.051a1.268,1.268,0,0,1-1.268,1.268H0v1.744a1.586,1.586,0,0,0,1.585,1.585H51.207V447.48Zm0,0" transform="translate(0 -379.308)"/><path class="c" d="M388.993,319.893a6.659,6.659,0,0,0-13.317,0v3.171a6.659,6.659,0,1,0,13.317,0Zm0,0" transform="translate(-318.444 -265.514)"/><path class="d" d="M411.883,313.234a6.707,6.707,0,0,0-1.348.137,6.661,6.661,0,0,1,5.311,6.522v3.171a6.661,6.661,0,0,1-5.311,6.522,6.663,6.663,0,0,0,8.007-6.522v-3.171A6.659,6.659,0,0,0,411.883,313.234Zm0,0" transform="translate(-347.993 -265.514)"/><path class="e" d="M354.985,424.851v-3.063a9.513,9.513,0,0,0-6.392-8.986l-3.4-1.178a10.212,10.212,0,0,0-3.351-.565H339.9a10.21,10.21,0,0,0-3.351.565l-3.4,1.178a9.512,9.512,0,0,0-6.392,8.986v4.648H353.4A1.586,1.586,0,0,0,354.985,424.851Zm0,0" transform="translate(-276.985 -348.436)"/><path class="f" d="M465.1,420.786l-.889-.309a9.514,9.514,0,0,1,3.793,7.6v6.341h1.9a1.586,1.586,0,0,0,1.585-1.585v-3.063a9.513,9.513,0,0,0-6.392-8.986Zm0,0" transform="translate(-393.488 -356.419)"/><path class="e" d="M104.038,353.487l-2.327-.808v.015l-5.39,9.354-5.39-9.354,0-.015-2.326.808a9.513,9.513,0,0,0-6.392,8.986v4.648h28.22v-4.648a9.512,9.512,0,0,0-6.392-8.986Zm0,0" transform="translate(-69.687 -298.95)"/><path class="f" d="M220.541,356.266l-.889-.309a9.514,9.514,0,0,1,3.794,7.6V369.9h3.487v-4.648a9.512,9.512,0,0,0-6.392-8.986Zm0,0" transform="translate(-186.189 -301.728)"/><path class="g" d="M139.435,347.487l5.39,9.354,5.39-9.354v-.016l-2.7-.936h-5.39l-2.7.937Zm0,0" transform="translate(-118.192 -293.742)"/><path class="c" d="M144.438,255.374a6.659,6.659,0,1,0-13.317,0v3.171a6.659,6.659,0,1,0,13.317,0Zm0,0" transform="translate(-111.146 -210.824)"/><path class="d" d="M167.332,248.715a6.7,6.7,0,0,0-1.347.136,6.661,6.661,0,0,1,5.311,6.522v3.171a6.661,6.661,0,0,1-5.311,6.522,6.665,6.665,0,0,0,8.006-6.522v-3.171A6.659,6.659,0,0,0,167.332,248.715Zm0,0" transform="translate(-140.698 -210.824)"/><path class="h" d="M40.269,0H6.341A6.341,6.341,0,0,0,0,6.341V22.83a6.341,6.341,0,0,0,6.341,6.341H9.829l5.762,5.762a1.268,1.268,0,0,0,2.166-.9V29.171H40.269A6.341,6.341,0,0,0,46.61,22.83V6.341A6.341,6.341,0,0,0,40.269,0Zm0,0" transform="translate(0)"/><path class="h" d="M40.269,0H6.341A6.341,6.341,0,0,0,0,6.341V22.83a6.341,6.341,0,0,0,6.341,6.341H9.829l5.762,5.762a1.268,1.268,0,0,0,2.166-.9V29.171H40.269A6.341,6.341,0,0,0,46.61,22.83V6.341A6.341,6.341,0,0,0,40.269,0Zm0,0" transform="translate(0)"/><path class="i" d="M6.341,135.381A6.342,6.342,0,0,1,0,129.039v3.171a6.341,6.341,0,0,0,6.341,6.341H9.829l5.762,5.762a1.269,1.269,0,0,0,2.166-.9v-.109l-7-7a3.172,3.172,0,0,0-2.242-.928Zm0,0" transform="translate(0 -109.381)"/><path class="i" d="M139.066,0H135.1a6.336,6.336,0,0,1,5.361,2.953,1.587,1.587,0,0,1-1.338,2.437h-2.6a9.512,9.512,0,0,0-9.513,9.512v9.513A1.585,1.585,0,0,1,125.432,26h-5.707a3.17,3.17,0,0,0-3.171,3.171h22.512a6.341,6.341,0,0,0,6.341-6.341V6.341A6.341,6.341,0,0,0,139.067,0Zm0,0" transform="translate(-98.798 0)"/><path class="j" d="M212.392,56.2h33.927a6.342,6.342,0,0,1,6.341,6.341V79.025a6.342,6.342,0,0,1-6.341,6.341h-16.33v4.865a1.268,1.268,0,0,1-2.165.9l-5.762-5.762h-9.671a6.341,6.341,0,0,1-6.341-6.341V62.537a6.341,6.341,0,0,1,6.341-6.341Zm0,0" transform="translate(-174.66 -47.634)"/><g transform="translate(31.391 8.561)"><path class="k" d="M212.392,189.494a6.342,6.342,0,0,1-6.341-6.342v3.488a6.342,6.342,0,0,0,6.341,6.342h9.671l5.762,5.762a1.268,1.268,0,0,0,2.165-.9v-.426l-7-7a3.17,3.17,0,0,0-2.242-.928Zm0,0" transform="translate(-206.051 -163.811)"/><path class="k" d="M379.517,56.195h-3.963a6.341,6.341,0,0,1,6.341,6.341V78.707a3.171,3.171,0,0,1-3.171,3.171H366.358a3.17,3.17,0,0,0-3.171,3.171v.317h16.33a6.342,6.342,0,0,0,6.341-6.342V62.536a6.341,6.341,0,0,0-6.341-6.341Zm0,0" transform="translate(-339.248 -56.194)"/></g></g></svg>