<svg xmlns="http://www.w3.org/2000/svg" width="99.526" height="69.869" viewBox="0 0 99.526 69.869"><defs><style>.a{fill:#6a7193;}.b{fill:#ff76a4;}.c{fill:#ed5176;}.d{fill:#ba365f;}.e{fill:#f9aa4b;}.f{fill:#ce675d;}.g{fill:#aa4b44;}.h{fill:#ffcd34;}.i{fill:#e69012;}.j{fill:#c8e7f7;}.k{fill:#8cbcd6;}.l{fill:#b56b09;}</style></defs><g transform="translate(-0.001 0)"><path class="a" d="M439.513,123.3a1.458,1.458,0,0,1-1.458-1.458v-9.774a1.458,1.458,0,0,1,2.916,0v9.774A1.458,1.458,0,0,1,439.513,123.3Zm0,0" transform="translate(-352.903 -89.106)"/><path class="b" d="M60.339.071a103.375,103.375,0,0,0,31.328,0c4.774-.7,8.737,3.912,8.737,8.737V54.435H51.6V8.809c0-4.825,3.963-9.441,8.737-8.737Zm0,0" transform="translate(-41.57)"/><path class="c" d="M250.515.071q-.872.129-1.737.244c3.343,1.071,5.769,4.718,5.769,8.494V54.435h4.706V8.809c0-4.825-3.964-9.441-8.737-8.737Zm0,0" transform="translate(-200.418 0)"/><path class="c" d="M68.865,111.648a8.6,8.6,0,0,0-8.775-8.6,8.709,8.709,0,0,0-8.422,8.767v18.408a2.955,2.955,0,0,1-2.956,2.955H20.154a2.955,2.955,0,0,1-2.955-2.955V111.818a8.709,8.709,0,0,0-8.422-8.767,8.6,8.6,0,0,0-3.8,16.394v19.972a5.991,5.991,0,0,0,5.991,5.991H57.9a5.991,5.991,0,0,0,5.992-5.991V119.445a8.6,8.6,0,0,0,4.971-7.8Zm0,0" transform="translate(0 -83.018)"/><path class="d" d="M279.817,103.052a8.382,8.382,0,0,0-2.253.354,8.6,8.6,0,0,1,2.084,15.546,1.973,1.973,0,0,0-.911,1.68v18.786a5.992,5.992,0,0,1-5.991,5.992h4.883a5.991,5.991,0,0,0,5.991-5.992V119.446a8.6,8.6,0,0,0-3.8-16.394Zm0,0" transform="translate(-219.728 -83.019)"/><path class="e" d="M71.367,320.961v6.077a1.4,1.4,0,0,0,1.4,1.4H75.2a1.4,1.4,0,0,0,1.4-1.4v-6.077Zm0,0" transform="translate(-57.494 -258.571)"/><path class="e" d="M255.988,320.961v6.077a1.4,1.4,0,0,0,1.4,1.4h2.428a1.4,1.4,0,0,0,1.4-1.4v-6.077Zm0,0" transform="translate(-206.227 -258.571)"/><g transform="translate(17.198 12.171)"><path class="d" d="M113.442,64.641h-.569v-.569a1.458,1.458,0,1,0-2.916,0v.569h-.569a1.458,1.458,0,1,0,0,2.916h.569v.569a1.458,1.458,0,1,0,2.916,0v-.569h.569a1.458,1.458,0,1,0,0-2.916Zm0,0" transform="translate(-104.147 -62.613)"/><path class="d" d="M215.986,64.641h-.57v-.569a1.458,1.458,0,1,0-2.916,0v.569h-.57a1.458,1.458,0,0,0,0,2.916h.57v.569a1.458,1.458,0,1,0,2.916,0v-.569h.57a1.458,1.458,0,0,0,0-2.916Zm0,0" transform="translate(-186.758 -62.613)"/><path class="d" d="M88.473,210.43a2.955,2.955,0,0,0,2.955,2.955h28.557a2.955,2.955,0,0,0,2.956-2.955v-7.825H88.473Zm0,0" transform="translate(-88.473 -175.393)"/></g><path class="f" d="M371.574,170.078v1.8a1.691,1.691,0,0,0,1.691,1.691H397.18a1.691,1.691,0,0,0,1.691-1.691v-1.8a1.691,1.691,0,0,0-1.691-1.691H373.265A1.691,1.691,0,0,0,371.574,170.078Zm0,0" transform="translate(-299.345 -135.655)"/><path class="g" d="M486.424,168.387h-4.072a1.692,1.692,0,0,1,1.692,1.691v1.8a1.692,1.692,0,0,1-1.692,1.691h4.072a1.691,1.691,0,0,0,1.691-1.691v-1.8A1.691,1.691,0,0,0,486.424,168.387Zm0,0" transform="translate(-388.589 -135.655)"/><path class="h" d="M388.227,220.072v-25h20.822v25a.95.95,0,0,1-.949.95H389.177A.95.95,0,0,1,388.227,220.072Zm0,0" transform="translate(-312.76 -157.151)"/><path class="i" d="M469.946,195.07v25a.95.95,0,0,1-.95.95h4.173a.95.95,0,0,0,.949-.95v-25Zm0,0" transform="translate(-377.829 -157.151)"/><path class="f" d="M396.105,328.578v5.005a.992.992,0,0,0,.992.992h2.22a.993.993,0,0,0,.993-.992v-5.005Zm0,0" transform="translate(-319.107 -264.707)"/><path class="f" d="M463.066,328.578v5.005a.992.992,0,0,0,.992.992h2.22a.993.993,0,0,0,.992-.992v-5.005Zm0,0" transform="translate(-373.052 -264.707)"/><path class="j" d="M419.072,70.272H405.458a1.224,1.224,0,0,1-1.15-1.642l3.3-9.094a1.224,1.224,0,0,1,1.15-.806h7.012a1.226,1.226,0,0,1,1.151.806l3.3,9.094A1.224,1.224,0,0,1,419.072,70.272Zm0,0" transform="translate(-325.655 -47.314)"/><path class="k" d="M447.847,68.63l-3.3-9.094a1.224,1.224,0,0,0-1.15-.806h-4.872a1.225,1.225,0,0,1,1.151.806l3.3,9.094a1.224,1.224,0,0,1-1.15,1.642H446.7A1.224,1.224,0,0,0,447.847,68.63Zm0,0" transform="translate(-353.28 -47.314)"/><path class="i" d="M409.049,257.24v-2.916H388.227v2.916Zm0,0" transform="translate(-312.761 -204.887)"/><path class="l" d="M473.883,254.324v2.916h4.172v-2.916Zm0,0" transform="translate(-381.766 -204.887)"/><path class="f" d="M432.394,208.189h-2.131a1.458,1.458,0,0,1,0-2.916h2.131a1.458,1.458,0,1,1,0,2.916Zm0,0" transform="translate(-345.451 -165.371)"/><path class="f" d="M432.394,278.15h-2.131a1.458,1.458,0,0,1,0-2.916h2.131a1.458,1.458,0,1,1,0,2.916Zm0,0" transform="translate(-345.451 -221.732)"/></g></svg>