<svg xmlns="http://www.w3.org/2000/svg" width="72.917" height="72.496" viewBox="0 0 72.917 72.496"><defs><style>.a{fill:#5aaae0;}.b{fill:#7dc7ff;}.c{fill:#f73445;}.d{fill:#359ed8;}.e{fill:#f7f769;}.f{fill:#ffc943;}.g{fill:#005889;}</style></defs><g transform="translate(-1.652 -2)"><path class="a" d="M1.652,19.564H22.192V70.838H1.652Z" transform="translate(0 3.658)"/><path class="a" d="M44.862,19.564H65.569V70.838H44.862Z" transform="translate(8.999 3.658)"/><path class="b" d="M18.652,2H50.321V74.5H18.652Z" transform="translate(3.541)"/><path class="c" d="M35.6,50.1a4.74,4.74,0,0,0,2.288-4.039,4.833,4.833,0,1,0-9.667,0A4.74,4.74,0,0,0,30.51,50.1a7.155,7.155,0,0,0-4.7,6.692v9.539H40.3V56.788A7.155,7.155,0,0,0,35.6,50.1Z" transform="translate(5.03 8.169)"/><g transform="translate(27.064 23.222)"><path class="d" d="M22.684,23.512H25.12V25.9H22.684Z" transform="translate(-22.684 -18.742)"/><path class="d" d="M22.684,27.459H25.12v2.385H22.684Z" transform="translate(-22.684 -17.92)"/><path class="d" d="M22.684,31.407H25.12v2.385H22.684Z" transform="translate(-22.684 -17.098)"/><path class="d" d="M22.684,35.354H25.12v2.385H22.684Z" transform="translate(-22.684 -16.275)"/><path class="d" d="M26.716,23.512h2.436V25.9H26.716Z" transform="translate(-21.844 -18.742)"/><path class="d" d="M26.716,27.459h2.436v2.385H26.716Z" transform="translate(-21.844 -17.92)"/><path class="d" d="M26.716,31.407h2.436v2.385H26.716Z" transform="translate(-21.844 -17.098)"/><path class="d" d="M26.716,35.354h2.436v2.385H26.716Z" transform="translate(-21.844 -16.275)"/><path class="d" d="M30.749,23.512h2.436V25.9H30.749Z" transform="translate(-21.004 -18.742)"/><path class="d" d="M30.749,27.459h2.436v2.385H30.749Z" transform="translate(-21.004 -17.92)"/><path class="d" d="M30.749,31.407h2.436v2.385H30.749Z" transform="translate(-21.004 -17.098)"/><path class="d" d="M30.749,35.354h2.436v2.385H30.749Z" transform="translate(-21.004 -16.275)"/><path class="d" d="M34.781,23.512h2.436V25.9H34.781Z" transform="translate(-20.165 -18.742)"/><path class="d" d="M26.716,19.564h2.436v2.385H26.716Z" transform="translate(-21.844 -19.564)"/><path class="d" d="M30.749,19.564h2.436v2.385H30.749Z" transform="translate(-21.004 -19.564)"/><path class="d" d="M34.781,19.564h2.436v2.385H34.781Z" transform="translate(-20.165 -19.564)"/><path class="d" d="M34.781,27.459h2.436v2.385H34.781Z" transform="translate(-20.165 -17.92)"/><path class="d" d="M34.781,31.407h2.436v2.385H34.781Z" transform="translate(-20.165 -17.098)"/><path class="d" d="M34.781,35.354h2.436v2.385H34.781Z" transform="translate(-20.165 -16.275)"/><path class="d" d="M38.814,23.512H41.25V25.9H38.814Z" transform="translate(-19.325 -18.742)"/><path class="d" d="M38.814,27.459H41.25v2.385H38.814Z" transform="translate(-19.325 -17.92)"/><path class="d" d="M38.814,31.407H41.25v2.385H38.814Z" transform="translate(-19.325 -17.098)"/><path class="d" d="M38.814,35.354H41.25v2.385H38.814Z" transform="translate(-19.325 -16.275)"/></g><path class="e" d="M14.893,53.594A3.541,3.541,0,0,0,16.3,50.782a3.625,3.625,0,1,0-7.25,0,3.541,3.541,0,0,0,1.409,2.812,5.956,5.956,0,0,0-3.825,5.535v5.962H18.718V59.129a5.956,5.956,0,0,0-3.825-5.535Z" transform="translate(1.038 9.405)"/><path class="f" d="M23.966,50.634a3.541,3.541,0,0,0,1.408-2.812,3.625,3.625,0,1,0-7.25,0,3.541,3.541,0,0,0,1.409,2.812,5.956,5.956,0,0,0-3.825,5.535v9.539H27.791V56.169a5.956,5.956,0,0,0-3.825-5.535Z" transform="translate(2.928 8.788)"/><path class="e" d="M55.217,53.594a3.541,3.541,0,0,0,1.409-2.812,3.625,3.625,0,1,0-7.25,0,3.541,3.541,0,0,0,1.409,2.812,5.956,5.956,0,0,0-3.825,5.535v5.962H59.042V59.129a5.956,5.956,0,0,0-3.825-5.535Z" transform="translate(9.436 9.405)"/><path class="f" d="M46.144,50.634a3.541,3.541,0,0,0,1.408-2.812,3.625,3.625,0,1,0-7.25,0,3.541,3.541,0,0,0,1.409,2.812,5.956,5.956,0,0,0-3.825,5.535v9.539H49.969V56.169a5.956,5.956,0,0,0-3.825-5.535Z" transform="translate(7.547 8.788)"/><path class="g" d="M49.9,26.472h2.436V45.551H49.9Z" transform="translate(10.049 5.097)"/><path class="g" d="M55.951,26.472h2.436V45.551H55.951Z" transform="translate(11.309 5.097)"/><path class="g" d="M5.546,26.472H7.983V45.551H5.546Z" transform="translate(0.811 5.097)"/><path class="g" d="M11.6,26.472h2.436V45.551H11.6Z" transform="translate(2.071 5.097)"/><path class="d" d="M23.692,4.761H43.181V16.685H23.692Z" transform="translate(4.59 0.575)"/></g></svg>