<svg xmlns="http://www.w3.org/2000/svg" width="81.99" height="81.988" viewBox="0 0 81.99 81.988"><defs><style>.a{fill:#766d78;}.b{fill:#655e67;}.c{fill:#f0a70a;}.d{fill:#e38803;}.e{fill:#fdc202;}.f{fill:#8e8391;}.g{fill:#d8cecc;}.h{fill:#40c1fa;}.i{fill:#07a9f0;}.j{fill:#b3adb6;}.k{fill:#a49ca7;}.l{fill:#fff5f4;}.m{fill:#ebe0da;}</style></defs><g transform="translate(0 -0.006)"><path class="a" d="M391.7,211.129a6.662,6.662,0,0,0-11.635-1.863l-7.052-3.477a1.237,1.237,0,0,0-1.094,2.22l7.052,3.477a6.662,6.662,0,0,0,8.562,8.1,1.237,1.237,0,1,0-.8-2.343,4.191,4.191,0,1,1,2.621-5.316,1.237,1.237,0,1,0,2.343-.8Z" transform="translate(-311.779 -172.723)"/><circle class="a" cx="5.093" cy="5.093" r="5.093" transform="translate(54.775 28.246)"/><path class="b" d="M350.6,185.19a5.091,5.091,0,1,1-2.511-8.747,5.093,5.093,0,0,0,2.511,8.747Z" transform="translate(-287.276 -148.11)"/><path class="c" d="M248.172,39.408l-14.03-22.267-11.477,7.9L238.454,46.1a3.616,3.616,0,0,0,4.943.809l3.768-2.594A3.613,3.613,0,0,0,248.172,39.408Z" transform="translate(-187.009 -14.391)"/><path class="d" d="M244.348,46.252l-.953.657a3.616,3.616,0,0,1-4.942-.81L222.663,25.042l11.477-7.9,1.747,2.771-7.45,5.127L244.226,46.1C244.266,46.151,244.305,46.2,244.348,46.252Z" transform="translate(-187.007 -14.393)"/><path class="e" d="M72.625,40.169a9.67,9.67,0,0,1,.218-13.948L99.567,1.351a5.014,5.014,0,0,1,6.945.109l4.507,4.465a5.014,5.014,0,0,1,.173,6.944L86.57,39.821A9.67,9.67,0,0,1,72.625,40.169Z" transform="translate(-58.59 -0.001)"/><circle class="b" cx="2.52" cy="2.52" r="2.52" transform="translate(41.534 7.217)"/><path class="c" d="M76.64,42.037a9.42,9.42,0,0,0,.823.727A9.668,9.668,0,0,1,72.844,26.22L99.567,1.349a5.014,5.014,0,0,1,6.945.109l.422.419a4.981,4.981,0,0,0-3.352,1.341L76.858,28.089A9.67,9.67,0,0,0,76.64,42.037Z" transform="translate(-58.59 0)"/><path class="f" d="M243.914,407.009v4.6a4.95,4.95,0,0,1-4.949,4.949H192.8V402.06h46.167A4.949,4.949,0,0,1,243.914,407.009Z" transform="translate(-161.924 -337.671)"/><circle class="g" cx="2.712" cy="2.712" r="2.712" transform="translate(51.009 69.145)"/><circle class="g" cx="2.712" cy="2.712" r="2.712" transform="translate(68.348 69.145)"/><g transform="translate(46.151 53.992)"><path class="h" d="M297.109,347.53H288.2v-9.572a.825.825,0,0,1,.825-.825h7.259a.825.825,0,0,1,.825.825Z" transform="translate(-288.201 -337.133)"/><path class="h" d="M412.793,347.53h-8.908v-9.572a.825.825,0,0,1,.825-.825h7.259a.825.825,0,0,1,.825.825Z" transform="translate(-385.36 -337.133)"/></g><path class="i" d="M293.482,337.138a.824.824,0,0,0-.825.825v9.572H288.2v-9.572a.824.824,0,0,1,.825-.825Z" transform="translate(-242.051 -283.145)"/><path class="i" d="M409.161,337.138a.824.824,0,0,0-.825.825v9.572h-4.454v-9.572a.824.824,0,0,1,.825-.825Z" transform="translate(-339.206 -283.145)"/><path class="a" d="M209.016,406.237v10.317H192.8V402.06H207.6a6.852,6.852,0,0,1,1.412,4.177Z" transform="translate(-161.924 -337.671)"/><path class="j" d="M62.811,163.226H31.134l1.549-38.188a9.618,9.618,0,0,1,9.61-9.228h9.358a9.618,9.618,0,0,1,9.61,9.228Z" transform="translate(-26.148 -97.26)"/><circle class="b" cx="3.723" cy="3.723" r="3.723" transform="translate(17.101 24.364)"/><path class="k" d="M48.066,115.813a9.619,9.619,0,0,0-9.611,9.228l-1.549,38.187H31.132l1.549-38.187a9.619,9.619,0,0,1,9.611-9.228Z" transform="translate(-26.147 -97.262)"/><path class="e" d="M49.485,257.217H19.168a3.248,3.248,0,0,1-3.248-3.248v-9.28a3.248,3.248,0,0,1,3.248-3.248H49.485a3.248,3.248,0,0,1,3.248,3.248v9.28A3.248,3.248,0,0,1,49.485,257.217Z" transform="translate(-13.371 -202.773)"/><g transform="translate(21.679 42.929)"><path class="l" d="M137.119,268.049h-.5a1.237,1.237,0,1,0,0,2.474h.5a1.237,1.237,0,1,0,0-2.474Z" transform="translate(-135.377 -268.049)"/><path class="l" d="M168.88,268.049h-.505a1.237,1.237,0,1,0,0,2.474h.505a1.237,1.237,0,1,0,0-2.474Z" transform="translate(-162.052 -268.049)"/><path class="l" d="M200.137,270.524h.5a1.237,1.237,0,1,0,0-2.474h-.5a1.237,1.237,0,1,0,0,2.474Z" transform="translate(-188.728 -268.05)"/><path class="l" d="M137.119,297.9h-.5a1.237,1.237,0,1,0,0,2.474h.5a1.237,1.237,0,1,0,0-2.474Z" transform="translate(-135.377 -293.12)"/><path class="l" d="M168.88,297.9h-.505a1.237,1.237,0,1,0,0,2.474h.505a1.237,1.237,0,1,0,0-2.474Z" transform="translate(-162.052 -293.12)"/><path class="l" d="M200.642,297.9h-.5a1.237,1.237,0,1,0,0,2.474h.5a1.237,1.237,0,1,0,0-2.474Z" transform="translate(-188.728 -293.12)"/></g><path class="e" d="M1.65,405.462H40a1.65,1.65,0,0,0,1.65-1.65V392.033a6.884,6.884,0,0,0-6.884-6.884H6.884A6.884,6.884,0,0,0,0,392.033v11.778a1.65,1.65,0,0,0,1.65,1.65Z" transform="translate(0 -323.468)"/><circle class="b" cx="2.712" cy="2.712" r="2.712" transform="translate(6.217 70.515)"/><g transform="translate(16.292 66.262)"><path class="b" d="M189.385,415.406h-.3v-.412a1.237,1.237,0,1,0-2.474,0v.412h-.3a1.237,1.237,0,1,0,0,2.474h.3v5.789a1.237,1.237,0,0,0,2.474,0v-5.789h.3a1.237,1.237,0,1,0,0-2.474Z" transform="translate(-171.731 -413.757)"/><path class="b" d="M147.718,419.884h-.3V415a1.237,1.237,0,1,0-2.474,0v4.889h-.3a1.237,1.237,0,1,0,0,2.474h.3v1.312a1.237,1.237,0,0,0,2.474,0v-1.312h.3a1.237,1.237,0,1,0,0-2.474Z" transform="translate(-136.736 -413.758)"/><path class="b" d="M106.05,416.774h-.3V415a1.237,1.237,0,1,0-2.474,0v1.779h-.3a1.237,1.237,0,0,0,0,2.474h.3v4.423a1.237,1.237,0,0,0,2.474,0v-4.423h.3a1.237,1.237,0,0,0,0-2.474Z" transform="translate(-101.741 -413.758)"/></g><path class="c" d="M24.939,257.22H19.165a3.249,3.249,0,0,1-3.248-3.248v-9.28a3.248,3.248,0,0,1,3.248-3.248h5.774a3.248,3.248,0,0,0-3.248,3.248v9.28A3.249,3.249,0,0,0,24.939,257.22Z" transform="translate(-13.368 -202.775)"/><path class="c" d="M5.774,392.038v11.777a1.649,1.649,0,0,0,1.65,1.65H1.65A1.649,1.649,0,0,1,0,403.815V392.038a6.883,6.883,0,0,1,6.884-6.884h5.774A6.884,6.884,0,0,0,5.774,392.038Z" transform="translate(0 -323.472)"/><path class="l" d="M56.424,277.964h-7.8a.825.825,0,0,1-.825-.825v-4.873a.825.825,0,0,1,.825-.825h7.8a.825.825,0,0,1,.825.825v4.873A.825.825,0,0,1,56.424,277.964Z" transform="translate(-40.147 -227.969)"/><path class="m" d="M54.4,277.965H48.625a.825.825,0,0,1-.825-.825v-4.873a.825.825,0,0,1,.825-.825H54.4a.825.825,0,0,0-.825.825v4.873A.825.825,0,0,0,54.4,277.965Z" transform="translate(-40.145 -227.97)"/></g></svg>