<svg xmlns="http://www.w3.org/2000/svg" width="87.091" height="76.757" viewBox="0 0 87.091 76.757"><defs><style>.a{fill:#c97523;}.b{fill:#a85613;}.c{fill:#8cc928;}.d{fill:#82b20b;}.e{fill:#e9eaef;}.f{fill:#9eb1b7;}.g{fill:#879ba0;}.h{fill:#85c10d;}.i{fill:#d2d4d8;}.j{fill:#ea4756;}.k{fill:#8e480e;}.l{fill:#a0d9f2;}.m{fill:#413740;}</style></defs><g transform="translate(0 -30.378)"><path class="a" d="M93.99,348.941v18.18H86.363V348.938" transform="translate(-71.673 -264.373)"/><path class="b" d="M89.765,348.941v18.18h-3.4V348.938" transform="translate(-71.673 -264.373)"/><ellipse class="c" cx="18.504" cy="29.09" rx="18.504" ry="29.09" transform="translate(0 30.378)"/><path class="d" d="M18.5,88.56C8.284,88.56,0,75.535,0,59.471s8.284-29.09,18.5-29.09c-4.525,0-8.191,13.025-8.191,29.09S13.979,88.56,18.5,88.56Z" transform="translate(0 -0.002)"/><path class="e" d="M231.63,148.25v37.037H183.04V148.25l24.432-23.7Z" transform="translate(-151.905 -78.153)"/><path class="f" d="M398.8,153.627v-6.841H410.95V165.2" transform="translate(-330.966 -96.607)"/><path class="g" d="M398.8,153.627v-6.841h2.917V165.2" transform="translate(-330.966 -96.607)"/><g transform="translate(0 99.374)"><path class="h" d="M342.038,436h24.348a2.494,2.494,0,0,1,2.494,2.494v5.268H339.544V438.49A2.494,2.494,0,0,1,342.038,436Z" transform="translate(-281.788 -435.996)"/><path class="h" d="M2.494,436H30.735a2.494,2.494,0,0,1,2.494,2.494v5.268H0V438.49A2.494,2.494,0,0,1,2.494,436Z" transform="translate(0 -435.996)"/></g><path class="i" d="M231.63,159.759v6.923l-24.3-23.2-24.3,23.2v-6.923l22.366-21.3,1.93-1.792,1.928,1.792Z" transform="translate(-151.905 -88.208)"/><path class="j" d="M172.036,120.836l-27.661,26.41L140.507,144l29.6-28.191,1.929-1.791,1.929,1.791L203.566,144l-3.868,3.247Z" transform="translate(-116.607 -69.412)"/><rect class="a" width="16.024" height="27.749" transform="translate(37.079 79.385)"/><path class="k" d="M229.539,340.608h-2.306v-26.6H213.515v26.6h-2.306v-27.75a1.153,1.153,0,0,1,1.153-1.153h16.025a1.153,1.153,0,0,1,1.153,1.153v27.75Z" transform="translate(-175.282 -233.474)"/><rect class="l" width="18.248" height="16.024" transform="translate(57.757 79.385)"/><rect class="a" width="18.248" height="4.869" transform="translate(57.757 79.385)"/><g transform="translate(46.024 78.232)"><path class="k" d="M352.167,330.038H333.919a1.153,1.153,0,0,1-1.153-1.153V312.861a1.153,1.153,0,0,1,1.153-1.153h18.248a1.153,1.153,0,0,1,1.153,1.153v16.024A1.153,1.153,0,0,1,352.167,330.038Zm-17.1-2.306h15.942V314.014H335.072Z" transform="translate(-322.187 -311.708)"/><path class="k" d="M274.05,395.058h-2.326a1.153,1.153,0,0,1,0-2.306h2.326a1.153,1.153,0,1,1,0,2.306Z" transform="translate(-270.571 -378.966)"/></g><circle class="m" cx="4.457" cy="4.457" r="4.457" transform="translate(50.973 62.545)"/><rect class="k" width="18.248" height="2.306" transform="translate(57.757 83.101)"/><path class="j" d="M298.493,223.927a5.611,5.611,0,1,1,5.611-5.611A5.617,5.617,0,0,1,298.493,223.927Zm0-8.916a3.305,3.305,0,1,0,3.305,3.305A3.309,3.309,0,0,0,298.493,215.011Z" transform="translate(-243.063 -151.313)"/><g transform="translate(2.378 95.564)"><path class="h" d="M40.434,419.627a1.33,1.33,0,0,1-1.33-1.33v-3.366a1.33,1.33,0,1,1,2.661,0V418.3A1.33,1.33,0,0,1,40.434,419.627Z" transform="translate(-34.831 -413.601)"/><path class="h" d="M15.312,419.627a1.33,1.33,0,0,1-1.33-1.33v-3.366a1.33,1.33,0,1,1,2.661,0V418.3A1.33,1.33,0,0,1,15.312,419.627Z" transform="translate(-13.982 -413.601)"/><path class="h" d="M150.629,419.627a1.33,1.33,0,0,1-1.33-1.33v-3.366a1.33,1.33,0,1,1,2.661,0V418.3A1.33,1.33,0,0,1,150.629,419.627Z" transform="translate(-126.282 -413.601)"/></g></g></svg>