<svg xmlns="http://www.w3.org/2000/svg" width="75.364" height="72.933" viewBox="0 0 75.364 72.933"><defs><style>.a{fill:#463c4b;}.b{fill:#289bc3;}.c{fill:#fab991;}.d{fill:#a5c3dc;}.e{fill:#d7e6f0;}.f{fill:#f0915a;}.g{fill:#555a6e;}.h{fill:#00d2d2;}.i{fill:#ff6e91;}</style></defs><g transform="translate(-8 -16)"><g transform="translate(48.518 51.251)"><path class="a" d="M279.529,254.078a1.212,1.212,0,0,1-.86-.356l-3.647-3.647a1.216,1.216,0,1,1,1.719-1.719L280.389,252a1.216,1.216,0,0,1-.86,2.075Z" transform="translate(-274.667 -248.001)"/></g><g transform="translate(33.527 16)"><path class="b" d="M182.078,35.449V24.509A6.078,6.078,0,0,0,176,18.431V16a8.509,8.509,0,0,1,8.509,8.509v10.94Z" transform="translate(-176 -16)"/></g><g transform="translate(8 18.431)"><g transform="translate(9.724 0)"><path class="c" d="M89.018,32A17.018,17.018,0,0,0,72,49.018V78.191H89.018V73.329h9.724a7.293,7.293,0,0,0,7.293-7.293V49.018A17.018,17.018,0,0,0,89.018,32Z" transform="translate(-72 -32)"/></g><g transform="translate(2.431 46.191)"><path class="d" d="M58.035,336H31.293A7.293,7.293,0,0,0,24,343.293v17.018H65.329V343.293A7.293,7.293,0,0,0,58.035,336Z" transform="translate(-24 -336)"/></g><g transform="translate(2.431 46.191)"><path class="e" d="M31.293,336A7.293,7.293,0,0,0,24,343.293v17.018H38.587V343.293A7.293,7.293,0,0,0,31.293,336Z" transform="translate(-24 -336)"/></g><g transform="translate(19.449 46.191)"><path class="f" d="M136,336a7.293,7.293,0,0,1,7.293,7.293v1.216a3.647,3.647,0,1,0,7.293,0v-1.216A7.293,7.293,0,0,0,143.293,336Z" transform="translate(-136 -336)"/></g><g transform="translate(9.724 41.329)"><path class="f" d="M89.018,304H76.862A4.862,4.862,0,0,0,72,308.862H89.018Z" transform="translate(-72 -304)"/></g><g transform="translate(37.277 20.259)"><circle class="a" cx="1.621" cy="1.621" r="1.621" transform="translate(0 0)"/></g><g transform="translate(30.794 20.259)"><circle class="a" cx="1.621" cy="1.621" r="1.621" transform="translate(0 0)"/></g><g transform="translate(0 0)"><path class="a" d="M39.6,32H32.311A17.02,17.02,0,0,0,15.38,47.289a4.863,4.863,0,1,0-.087,8.37V66.035A4.862,4.862,0,0,0,20.156,70.9h4.862a4.862,4.862,0,0,0,4.862-4.862V53.88a4.862,4.862,0,0,0,4.862-4.862H51.76a2.431,2.431,0,0,0,2.431-2.431A14.587,14.587,0,0,0,39.6,32Z" transform="translate(-8 -32)"/></g><g transform="translate(35.251 23.906)"><path class="f" d="M242.431,197.032A2.431,2.431,0,0,1,240,194.6v-5.267a4.862,4.862,0,0,1,4.862,4.862v.405a2.431,2.431,0,0,1-2.431,2.431Z" transform="translate(-240 -189.333)"/></g><g transform="translate(34.035 34.441)"><path class="a" d="M232,258.667h4.862a2.026,2.026,0,0,1-2.026,2.026h-.81A2.026,2.026,0,0,1,232,258.667Z" transform="translate(-232 -258.667)"/></g><g transform="translate(55.915 54.7)"><path class="f" d="M394.737,392.712a2.431,2.431,0,0,0-3.438,0l-5.869,5.869a2.415,2.415,0,0,1-1.719.712h-6.495A1.216,1.216,0,0,0,376,400.509V407.8h4.862v-1.216a2.431,2.431,0,0,1,2.431-2.431h.417a7.246,7.246,0,0,0,5.157-2.136l5.869-5.869A2.431,2.431,0,0,0,394.737,392.712Z" transform="translate(-376 -392)"/></g><g transform="translate(51.053 55.915)"><path class="c" d="M354.332,400h-5.47A4.862,4.862,0,0,0,344,404.862v9.724h4.862v-7.293a1.216,1.216,0,0,1,1.216-1.216h4.254a3.039,3.039,0,0,0,0-6.078Z" transform="translate(-344 -400)"/></g></g><g transform="translate(21.371 40.311)"><path class="a" d="M104.509,188.156h-2.431a6.078,6.078,0,0,1,0-12.156h2.431a6.078,6.078,0,1,1,0,12.156Z" transform="translate(-96 -176)"/></g><g transform="translate(21.371 40.311)"><circle class="g" cx="6" cy="6" r="6" transform="translate(0.311 0.156)"/></g><g transform="translate(21.371 16)"><path class="b" d="M108.156,16h-3.647A8.509,8.509,0,0,0,96,24.509v21.88a3.647,3.647,0,0,0,3.647,3.647h2.431a3.647,3.647,0,1,0,0-7.293V24.509a6.078,6.078,0,0,1,6.078-6.078Z" transform="translate(-96 -16)"/></g><g transform="translate(21.371 16)"><path class="h" d="M108.156,16h-3.647A8.509,8.509,0,0,0,96,24.509v21.88a3.647,3.647,0,1,0,3.647-3.647V24.509A8.509,8.509,0,0,1,108.156,16Z" transform="translate(-96 -16)"/></g><g transform="translate(43.656 54.898)"><path class="a" d="M251.888,278.079h-8.005a1.216,1.216,0,0,1,0-2.431h8.005a.5.5,0,0,0,.356-.859l-.712-.712a1.215,1.215,0,1,1,1.719-1.719l.712.712a2.934,2.934,0,0,1-2.075,5.009Z" transform="translate(-242.667 -272.002)"/></g><g transform="translate(42.035 57.329)"><path class="h" d="M238.078,288h-4.862A1.216,1.216,0,0,0,232,289.216v2.431a1.216,1.216,0,0,0,1.216,1.216h4.862a1.216,1.216,0,0,0,1.216-1.216v-2.431A1.216,1.216,0,0,0,238.078,288Z" transform="translate(-232 -288)"/></g><g transform="translate(43.251 59.76)"><path class="b" d="M246.078,304h-4.862v1.216A1.216,1.216,0,0,1,240,306.431h4.862a1.216,1.216,0,0,0,1.216-1.216Z" transform="translate(-240 -304)"/></g><g transform="translate(59.053 47.604)"><path class="i" d="M344,228.862v9.724a4.862,4.862,0,0,0,4.862,4.862h3.647l1.887,3.775a1.967,1.967,0,0,0,3.518,0l1.887-3.775h3.647a4.862,4.862,0,0,0,4.862-4.862v-9.724A4.862,4.862,0,0,0,363.449,224H348.862A4.862,4.862,0,0,0,344,228.862Z" transform="translate(-344 -224)"/></g><g transform="translate(67.562 50.035)"><path class="e" d="M406.078,279.293h-1.216v-6.078A1.216,1.216,0,0,0,403.647,272h-2.431a1.216,1.216,0,1,0,0,2.431h1.216v4.862h-1.216a1.216,1.216,0,1,0,0,2.431h4.862a1.216,1.216,0,1,0,0-2.431Z" transform="translate(-400 -267.138)"/><ellipse class="e" cx="2" cy="1.5" rx="2" ry="1.5" transform="translate(1.12 0.431)"/></g></g></svg>